<svg width="706" height="709" viewBox="0 0 706 709" fill="none" xmlns="http://www.w3.org/2000/svg">
<path d="M176.512 85.3974C180.165 91.1841 183.898 96.8149 187.041 102.914C189.703 108.079 192.208 113.32 195.089 118.372C200.333 127.567 206.372 136.3 212.626 144.837C222.373 158.141 232.874 170.644 244.031 182.781C245.211 184.064 247.838 187.97 247.962 186.235" stroke="black" stroke-width="3" stroke-linecap="round"/>
<path d="M245.357 191.008C243.204 190.647 241.021 188.745 239.353 187.521C230.772 181.226 223.177 173.51 217.174 164.731C210.89 155.541 206.867 145.441 202.903 135.121C200.349 128.473 197.47 121.965 194.74 115.389" stroke="black" stroke-width="3" stroke-linecap="round"/>
<path d="M189.03 116.107C190.571 118.163 191.636 120.557 193.087 122.683C198.982 131.321 205.968 139.211 212.148 147.651C217.864 155.459 223.129 163.575 228.902 171.344C232.229 175.82 235.666 180.072 238.438 184.889" stroke="black" stroke-width="3" stroke-linecap="round"/>
<path d="M205.246 142.579C200.262 136.867 194.091 132.365 189.116 126.665C186.084 123.19 183.357 119.163 181.314 115.029C180.558 113.5 180.014 111.879 179.256 110.347" stroke="black" stroke-width="3" stroke-linecap="round"/>
<path d="M175.355 109.507C175.476 109.998 175.791 110.308 176.088 110.72C176.954 111.922 177.595 113.187 178.111 114.574C180.78 121.743 181.843 129.386 184.179 136.65C186.021 142.379 188.862 148.174 192.623 152.933" stroke="black" stroke-width="3" stroke-linecap="round"/>
<path d="M192.5 146.735C184.814 142.195 176.805 138.065 169.473 132.968C161.849 127.669 154.969 121.498 148.821 114.558C144.418 109.587 140.221 104.427 135.902 99.3825" stroke="black" stroke-width="3" stroke-linecap="round"/>
<path d="M157.422 114.981C156.658 113.22 154.523 111.887 153.074 110.779C145.829 105.242 137.655 100.906 129.662 96.5547C117.58 89.9784 105.258 83.8658 93.08 77.4705C89.0791 75.3694 85.7977 73.6388 81.9874 71.3051C78.9369 69.4368 76.5964 67.3133 73.8407 65.1439" stroke="black" stroke-width="3" stroke-linecap="round"/>
<path d="M84.6544 56.3499C89.8604 65.9469 98.5045 73.8096 106.648 80.7941C113.985 87.0865 121.615 93.031 129.042 99.2154C132.619 102.193 136.134 105.249 139.806 108.1" stroke="black" stroke-width="3" stroke-linecap="round"/>
<path d="M139.44 97.3847C138.738 96.2119 136.768 95.31 135.685 94.5679C132.036 92.0662 128.155 89.9789 124.333 87.7522C115.412 82.554 106.574 76.8424 99.5784 69.2279" stroke="black" stroke-width="3" stroke-linecap="round"/>
<path d="M85.3774 54.151C83.7426 52.8295 81.9665 51.8952 80.0599 50.9983C74.3087 48.2929 68.711 45.3171 63.3262 41.9494C55.3858 36.9833 47.1295 31.678 40.4886 25.0735" stroke="black" stroke-width="3" stroke-linecap="round"/>
<path d="M43.0667 36.509C45.5599 39.3586 48.5098 41.5232 51.5528 43.776C58.3797 48.8298 65.023 54.1173 70.9684 60.1862C76.9069 66.2481 82.4065 72.6774 88.844 78.2477C90.9224 80.046 93.1345 81.685 95.1607 83.5404" stroke="black" stroke-width="3" stroke-linecap="round"/>
<path d="M105.268 96.5943C105.919 97.1526 106.644 97.7163 107.106 98.4482C107.231 98.6472 104.328 95.2204 103.969 94.7203C97.4416 85.6412 91.7888 76.215 86.1866 66.5856" stroke="black" stroke-width="3" stroke-linecap="round"/>
<path d="M24.1279 40.2237C24.7581 44.7409 27.0724 49.3447 28.9063 53.4571C34.0052 64.8907 41.1905 74.7788 48.6738 84.7828C54.1124 92.0533 59.4716 99.5069 64.3347 107.172C67.4144 112.026 70.5306 116.173 75.0283 119.801" stroke="black" stroke-width="3" stroke-linecap="round"/>
<path d="M82.3872 119.762C78.9098 115.916 75.5893 112.015 72.8117 107.622C69.4994 102.384 67.0738 96.688 64.2805 91.1732C59.4546 81.6454 52.9602 73.028 48.5059 63.3388" stroke="black" stroke-width="3" stroke-linecap="round"/>
<path d="M85.0823 121.642C85.3967 125.632 87.4383 129.747 88.839 133.442C93.4453 145.593 100.153 156.838 107.608 167.471C115.836 179.208 125.866 188.926 136.054 198.942C142.463 205.243 148.045 212.294 155.171 217.777" stroke="black" stroke-width="3" stroke-linecap="round"/>
<path d="M166.36 243.328C165.577 241.857 164.43 240.578 163.445 239.243C160.062 234.659 157.163 229.729 153.976 225.011C149.211 217.959 144.23 211.035 139.964 203.663C135.263 195.54 131.906 186.921 128.574 178.187" stroke="black" stroke-width="3" stroke-linecap="round"/>
<path d="M89.4693 131.519C92.2039 135.715 95.2496 139.675 98.2602 143.674C102.55 149.371 106.809 155.05 111.657 160.293C117.602 166.722 125.842 173.13 128.897 181.586" stroke="black" stroke-width="3" stroke-linecap="round"/>
<path d="M126.043 181.946C118.843 176.831 113.247 170.04 108.401 162.704C101.178 151.77 92.6513 142.319 83.7194 132.797" stroke="black" stroke-width="3" stroke-linecap="round"/>
<path d="M80.4183 123.56C84.4943 130.867 87.4077 138.734 91.4613 146.051C96.0983 154.421 102.039 161.691 108.304 168.867" stroke="black" stroke-width="3" stroke-linecap="round"/>
<path d="M140.459 233.606C130.124 226.144 121.967 216.768 114.672 206.452" stroke="black" stroke-width="3" stroke-linecap="round"/>
<path d="M27.2783 75.3293C27.9407 82.5369 31.0658 89.7617 33.1528 96.6372C34.8904 102.362 36.2922 108.216 38.3441 113.842C40.3641 119.381 43.2668 124.373 46.0388 129.55" stroke="black" stroke-width="3" stroke-linecap="round"/>
<path d="M65.6698 147.827C56.9722 134.737 50.2362 120.606 43.7375 106.32" stroke="black" stroke-width="3" stroke-linecap="round"/>
<path d="M35.5633 78.1694C35.7882 80.1907 36.4857 82.1919 37.2642 84.0612C39.329 89.0195 41.4757 93.9037 43.4293 98.9124C46.8427 107.664 50.8382 116.045 56.2685 123.774C58.9532 127.595 61.9681 131.198 64.9007 134.832" stroke="black" stroke-width="3" stroke-linecap="round"/>
<path d="M32.4683 81.8878C32.5316 83.4156 33.0301 84.8491 33.5221 86.287C35.2338 91.2897 37.4827 96.0667 39.9412 100.739C45.4895 111.285 51.7379 121.422 57.1787 132.032" stroke="black" stroke-width="3" stroke-linecap="round"/>
<path d="M62.7748 148.746C64.3828 151.282 65.595 154.16 67.1069 156.769C69.523 160.94 72.0594 164.999 74.324 169.259" stroke="black" stroke-width="3" stroke-linecap="round"/>
<path d="M81.849 182.735C83.6904 186.162 86.048 189.389 88.088 192.72C90.0913 195.991 92.3373 199.099 94.6041 202.21" stroke="black" stroke-width="3" stroke-linecap="round"/>
<path d="M107.559 218.885C109.321 220.616 111.036 222.661 111.935 225.002C112.31 225.982 112.452 226.422 113.192 227.163" stroke="black" stroke-width="3" stroke-linecap="round"/>
<path d="M122.803 227.285C121.304 226.157 119.502 225.402 117.932 224.366C114.356 222.007 111.093 219.148 108.256 215.947C101.529 208.355 97.1186 199.087 91.4631 190.734" stroke="black" stroke-width="3" stroke-linecap="round"/>
<path d="M99.9141 207.089C94.919 201.902 90.1433 196.579 86.5473 190.341C82.2706 182.921 79.4339 174.888 77.3389 166.661" stroke="black" stroke-width="3" stroke-linecap="round"/>
<path d="M63.6978 143.748C64.8146 147.51 66.5015 150.948 68.0611 154.546C71.1242 161.613 74.3717 168.443 78.4808 175.009C84.6683 184.895 93.138 193.942 96.6562 205.169" stroke="black" stroke-width="3" stroke-linecap="round"/>
<path d="M111.58 218.047C111.693 218.954 112.404 219.443 113.017 220.038C114.044 221.035 114.753 222.264 115.862 223.193C117.904 224.901 120.438 226.359 122.16 228.364" stroke="black" stroke-width="3" stroke-linecap="round"/>
<path d="M122.2 227.805C117.153 224.148 111.572 221.104 106.815 217.06C103.338 214.104 100.693 210.102 97.6338 206.728C91.586 200.058 86.1783 193.23 83.4181 184.535" stroke="black" stroke-width="3" stroke-linecap="round"/>
<path d="M101.252 235.877C99.4356 235.252 97.952 233.397 96.704 232.056C92.8122 227.871 89.0319 223.497 85.7658 218.816C82.4332 214.04 79.5552 209.019 77.6737 203.506C76.3043 199.494 75.4195 195.328 74.4532 191.21" stroke="black" stroke-width="3" stroke-linecap="round"/>
<path d="M72.3212 189.37C77.5542 202.355 81.3336 215.897 89.8114 227.291C93.2358 231.893 97.2739 236.021 100.576 240.712C101.815 242.471 102.776 244.123 103.348 246.153" stroke="black" stroke-width="3" stroke-linecap="round"/>
<path d="M148.212 315.174C139.905 306.235 130.594 298.915 124.338 288.169C117.552 276.512 113.326 263.134 110.427 250.033" stroke="black" stroke-width="3" stroke-linecap="round"/>
<path d="M104.311 240.595C108.457 246.068 112.562 251.622 115.866 257.65C120.26 265.669 123.15 274.456 126.53 282.917C131.338 294.956 137.646 306.333 142.905 318.171" stroke="black" stroke-width="3" stroke-linecap="round"/>
<path d="M146.403 316.732C145.409 313.885 143.725 311.311 142.075 308.811C136.057 299.69 129.967 290.695 124.664 281.121C117.465 268.123 110.516 254.901 103.84 241.626C100.29 234.567 96.9163 227.531 95.6163 219.723" stroke="black" stroke-width="3" stroke-linecap="round"/>
<path d="M258.506 361.497C258.524 361.837 258.857 361.971 258.264 361.744C254.46 360.291 250.865 356.84 247.603 354.517C237.341 347.207 228.066 339.279 219.582 329.9C212.702 322.295 206.432 314.216 200.364 305.949" stroke="black" stroke-width="3" stroke-linecap="round"/>
<path d="M242.004 356.736C235.697 349.114 228.38 342.453 221.931 334.959C215.418 327.39 210.157 319.171 205.714 310.268" stroke="black" stroke-width="3" stroke-linecap="round"/>
<path d="M220.598 323.706C218.009 321.04 215.039 318.785 212.092 316.528C206.17 311.992 200.357 307.318 194.536 302.657C186.047 295.859 177.49 289.075 169.34 281.875C166.831 279.659 164.583 277.654 162.422 275.128C160.568 272.96 160.459 271.614 159.413 269.275" stroke="black" stroke-width="3" stroke-linecap="round"/>
<path d="M156.035 269.035C161.348 272.278 166.056 276.513 171.091 280.165C179.605 286.34 188.429 292.031 196.76 298.466C200.664 301.48 204.719 304.481 208.224 307.973C209.293 309.04 210.089 310.371 211.304 311.229" stroke="black" stroke-width="3" stroke-linecap="round"/>
<path d="M243.441 328.709C233.898 324.846 224.512 320.771 215.098 316.589C207.228 313.092 199.73 308.912 193.439 302.947C185.957 295.853 182.148 287.115 178.035 277.916" stroke="black" stroke-width="3" stroke-linecap="round"/>
<path d="M198.318 318.743C195.636 316.794 192.486 315.432 189.685 313.654C183.538 309.751 177.965 304.857 173.303 299.27C166.684 291.337 162.763 281.181 160.982 271.075" stroke="black" stroke-width="3" stroke-linecap="round"/>
<path d="M285.275 360.944C283.903 356.033 281.932 351.481 279.927 346.801C276.405 338.579 273.049 330.288 269.544 322.059C265.104 311.636 260.471 301.294 256.241 290.783C253.538 284.066 251.715 277.751 250.415 270.695" stroke="black" stroke-width="3" stroke-linecap="round"/>
<path d="M271.972 277.856C274.82 293.056 275.826 308.726 276.25 324.136C276.458 331.694 276.778 339.461 276.063 346.998C275.772 350.07 275.155 352.496 273.494 355.041" stroke="black" stroke-width="3" stroke-linecap="round"/>
<path d="M276.424 350.187C275.421 341.484 273.642 332.781 272.288 324.117C271.31 317.853 270.234 311.661 268.234 305.624C265.865 298.473 262.485 291.994 258.986 285.37" stroke="black" stroke-width="3" stroke-linecap="round"/>
<path d="M266.798 310.682C266.564 304.93 262.023 299.349 259.346 294.492C254.499 285.699 250.915 276.86 248.403 267.176" stroke="black" stroke-width="3" stroke-linecap="round"/>
<path d="M272.553 222.2C273.171 228.565 274.102 234.897 274.731 241.262C275.714 251.218 276.066 261.221 277.141 271.168C278.281 281.71 280.543 292.531 279.783 303.167" stroke="black" stroke-width="3" stroke-linecap="round"/>
<path d="M274.873 292.691C273.451 283.473 270.687 274.527 269.656 265.228C268.852 257.982 268.675 250.642 267.356 243.458C266.48 238.692 264.86 234.374 262.946 229.955" stroke="black" stroke-width="3" stroke-linecap="round"/>
<path d="M267.074 195.93C267.769 201.194 267.936 206.547 268.207 211.846C268.68 221.096 269.596 230.361 270.88 239.531C272.181 248.817 275.161 257.445 277.174 266.534C277.916 269.882 277.965 273.181 277.722 276.578" stroke="black" stroke-width="3" stroke-linecap="round"/>
<path d="M272.298 289.132C268.113 282.94 266.076 275.339 264.094 268.296C260.487 255.48 257.931 242.506 255.627 229.434" stroke="black" stroke-width="3" stroke-linecap="round"/>
<path d="M258.026 195.848C259.307 197.537 259.475 200.713 259.929 202.699C260.957 207.197 261.705 211.729 263.082 216.149C265.656 224.41 269.319 232.638 270.631 241.192" stroke="black" stroke-width="3" stroke-linecap="round"/>
<path d="M270.311 245.67C267.205 234.386 262.204 223.415 256.861 213.007C252.338 204.193 247.834 195.184 241.656 187.368" stroke="black" stroke-width="3" stroke-linecap="round"/>
<path d="M267.834 185.295C269.454 195.549 268.977 205.619 268.319 215.951C267.734 225.127 267.504 234.868 271.034 243.471" stroke="black" stroke-width="3" stroke-linecap="round"/>
<path d="M267.24 209.445C266.634 196.047 267.103 182.926 268.62 169.598" stroke="black" stroke-width="3" stroke-linecap="round"/>
<path d="M273.333 361.772C264.921 361.173 256.806 360.945 249.198 356.803C241.754 352.751 236.073 346.627 234.839 338.223" stroke="black" stroke-width="3" stroke-linecap="round"/>
<path d="M277.55 350.267C277.396 355.589 278.183 361.103 279.808 366.18" stroke="black" stroke-width="3" stroke-linecap="round"/>
<path d="M282.14 365.222C277.991 361.072 275.591 355.311 273.596 349.829C271.193 343.226 269.007 336.794 267.69 329.873" stroke="black" stroke-width="3" stroke-linecap="round"/>
<path d="M273.766 339.87C270.243 325.575 266.984 311.782 265.505 297.087" stroke="black" stroke-width="3" stroke-linecap="round"/>
<path d="M272.787 306.044C264.834 285.442 266.282 261.969 266.973 240.361C267.536 222.769 266.942 205.502 264.318 188.08C262.76 177.729 260.757 167.436 259.097 157.105" stroke="black" stroke-width="3" stroke-linecap="round"/>
<path d="M261.174 223.077C261.19 209.179 250.007 194.583 242.031 184.299C219.763 155.586 191.257 134.059 160.84 114.661" stroke="black" stroke-width="3" stroke-linecap="round"/>
<path d="M184.215 143.894C172.628 139.504 161.669 131.716 151.892 124.246C142.071 116.742 134.206 108.409 132.764 95.7835" stroke="black" stroke-width="3" stroke-linecap="round"/>
<path d="M178.662 134.497C165.99 118.081 150.336 104.158 139.074 86.6687" stroke="black" stroke-width="3" stroke-linecap="round"/>
<path d="M192.337 141.097C185.741 135.024 177.378 129.879 169.735 125.225C161.267 120.069 152.296 115.816 143.744 110.81C134.035 105.127 126.123 98.2588 117.843 90.7822" stroke="black" stroke-width="3" stroke-linecap="round"/>
<path d="M116.924 103.657C110.75 93.9007 104.119 84.4511 96.2881 75.9282C88.8199 67.8001 80.08 61.1664 73.0315 52.7087" stroke="black" stroke-width="3" stroke-linecap="round"/>
<path d="M85.7466 72.743C66.0312 62.4623 54.2657 44.0604 50.8624 22.4368" stroke="black" stroke-width="3" stroke-linecap="round"/>
<path d="M52.1177 44.4675C45.8757 39.738 39.6332 35.8154 34.8694 29.3613C30.8403 23.9027 27.2632 17.747 24.4786 11.5555" stroke="black" stroke-width="3" stroke-linecap="round"/>
<path d="M28.435 51.2199C28.5788 43.9204 26.744 36.403 25.6876 29.2092C24.5262 21.2998 22.2114 9.57493 26.0045 2.10048" stroke="black" stroke-width="3" stroke-linecap="round"/>
<path d="M165.652 284.91C160.472 280.544 153.747 278.146 148.342 273.962C138.168 266.088 128.956 256.606 119.601 247.812C110.893 239.626 101.612 231.391 96.0111 220.676C94.5692 217.917 93.6642 215.366 93.8843 212.285" stroke="black" stroke-width="3" stroke-linecap="round"/>
<path d="M97.9883 218.204C99.1104 225.055 102.965 232.036 106.991 237.602C115.297 249.085 126.222 258.759 135.506 269.46C146.018 281.577 156.496 293.72 167.657 305.266C176.122 314.022 185.308 320.831 195.427 327.538" stroke="black" stroke-width="3" stroke-linecap="round"/>
<path d="M260.663 356.94C253.241 348.418 244.759 343.092 234.79 337.805C215.526 327.588 196.962 317.272 178.93 304.984" stroke="black" stroke-width="3" stroke-linecap="round"/>
<path d="M247.028 349.78C238.02 345.602 229.792 339.31 221.494 333.952C210.219 326.672 198.897 319.458 187.504 312.361C168.372 300.443 149.129 288.703 130.021 276.746" stroke="black" stroke-width="3" stroke-linecap="round"/>
<path d="M120.687 264.829C115.299 249.668 111.816 234.139 104.523 219.639C95.2695 201.242 88.729 183.478 84.9378 163.264" stroke="black" stroke-width="3" stroke-linecap="round"/>
<path d="M77.9664 126.198C79.2312 135.587 82.7514 144.954 86.1107 153.759C91.2781 167.303 97.8294 180.224 105.296 192.652C119.095 215.619 135.135 236.017 153.617 255.36" stroke="black" stroke-width="3" stroke-linecap="round"/>
<path d="M189.63 313.624C188.507 311.256 186.486 309.37 184.736 307.47C180.231 302.58 175.777 297.664 171.371 292.686C159.727 279.531 146.741 267.85 133.967 255.81C125.829 248.14 117.814 240.369 110.092 232.28C100.522 222.254 90.5334 211.94 83.5002 199.911C77.7004 189.992 75.9334 179.461 75.5299 168.221" stroke="black" stroke-width="3" stroke-linecap="round"/>
<path d="M57.2894 106.722C59.6249 128.494 69.3871 149.456 78.942 168.845C92.5688 196.498 108.656 222.882 125.224 248.836" stroke="black" stroke-width="3" stroke-linecap="round"/>
<path d="M542.773 115.665C538.338 120.859 533.846 125.887 529.872 131.46C526.506 136.181 523.284 140.998 519.717 145.576C513.225 153.908 506.011 161.671 498.613 169.21C487.083 180.96 474.921 191.812 462.162 202.21C460.813 203.309 457.66 206.791 457.783 205.062" stroke="black" stroke-width="3" stroke-linecap="round"/>
<path d="M459.824 209.953C462.007 209.902 464.438 208.335 466.264 207.365C475.653 202.374 484.267 195.841 491.456 188.036C498.982 179.865 504.398 170.478 509.787 160.865C513.259 154.672 517.033 148.664 520.669 142.567" stroke="black" stroke-width="3" stroke-linecap="round"/>
<path d="M525.878 143.993C524.065 145.814 522.674 148.037 520.939 149.94C513.892 157.673 505.875 164.509 498.576 172.005C491.823 178.939 485.473 186.244 478.67 193.131C474.751 197.099 470.753 200.829 467.332 205.214" stroke="black" stroke-width="3" stroke-linecap="round"/>
<path d="M506.4 167.711C512.128 162.781 518.855 159.213 524.571 154.293C528.055 151.295 531.317 147.708 533.919 143.92C534.881 142.518 535.648 140.996 536.613 139.593" stroke="black" stroke-width="3" stroke-linecap="round"/>
<path d="M540.371 139.243C540.182 139.714 539.826 139.977 539.474 140.346C538.447 141.419 537.635 142.587 536.928 143.894C533.271 150.649 531.134 158.104 527.793 165.002C525.157 170.442 521.527 175.805 517.135 180.007" stroke="black" stroke-width="3" stroke-linecap="round"/>
<path d="M518.414 173.714C526.603 170.351 535.052 167.433 542.971 163.475C551.206 159.359 558.833 154.285 565.85 148.356C570.875 144.11 575.723 139.649 580.676 135.319" stroke="black" stroke-width="3" stroke-linecap="round"/>
<path d="M557.489 147.564C558.493 145.933 560.788 144.919 562.374 144.03C570.305 139.587 578.982 136.46 587.483 133.294C600.333 128.508 613.353 124.215 626.271 119.621C630.516 118.112 633.998 116.867 638.087 115.102C641.36 113.688 643.97 111.922 646.996 110.17" stroke="black" stroke-width="3" stroke-linecap="round"/>
<path d="M637.631 100.01C631.108 108.702 621.421 115.205 612.356 120.915C604.188 126.06 595.779 130.821 587.537 135.847C583.568 138.267 579.649 140.771 575.603 143.053" stroke="black" stroke-width="3" stroke-linecap="round"/>
<path d="M577.674 132.653C578.533 131.592 580.602 130.978 581.774 130.397C585.726 128.437 589.847 126.92 593.929 125.257C603.459 121.374 612.979 116.971 620.954 110.424" stroke="black" stroke-width="3" stroke-linecap="round"/>
<path d="M637.535 97.6305C639.343 96.5438 641.236 95.8639 643.253 95.2399C649.336 93.3577 655.306 91.1836 661.122 88.5879C669.697 84.7602 678.633 80.6388 686.155 74.9901" stroke="black" stroke-width="3" stroke-linecap="round"/>
<path d="M681.65 86.0071C678.788 88.4704 675.573 90.1923 672.253 91.9882C664.806 96.017 657.506 100.303 650.784 105.459C644.07 110.61 637.736 116.185 630.6 120.779C628.296 122.262 625.882 123.569 623.622 125.116" stroke="black" stroke-width="3" stroke-linecap="round"/>
<path d="M611.625 136.918C610.91 137.381 610.12 137.838 609.565 138.5C609.414 138.68 612.739 135.686 613.161 135.24C620.832 127.145 627.697 118.582 634.541 109.81" stroke="black" stroke-width="3" stroke-linecap="round"/>
<path d="M699.769 92.5712C698.508 96.9529 695.577 101.182 693.187 104.993C686.545 115.589 678.067 124.359 669.279 133.203C662.892 139.63 656.558 146.249 650.682 153.148C646.96 157.517 643.304 161.181 638.36 164.135" stroke="black" stroke-width="3" stroke-linecap="round"/>
<path d="M630.773 162.541C634.767 159.242 638.613 155.865 641.991 151.928C646.019 147.233 649.233 141.962 652.785 136.921C658.923 128.211 666.586 120.636 672.378 111.714" stroke="black" stroke-width="3" stroke-linecap="round"/>
<path d="M628.264 164.207C627.385 168.116 624.777 171.903 622.864 175.366C616.572 186.753 608.328 196.943 599.431 206.422C589.61 216.884 578.292 225.09 566.776 233.568C559.53 238.903 552.997 245.098 545.159 249.519" stroke="black" stroke-width="3" stroke-linecap="round"/>
<path d="M530.187 273.238C531.179 271.887 532.505 270.778 533.679 269.59C537.708 265.514 541.303 261.022 545.157 256.785C550.917 250.449 556.875 244.272 562.184 237.548C568.033 230.138 572.614 222.043 577.185 213.831" stroke="black" stroke-width="3" stroke-linecap="round"/>
<path d="M622.551 173.556C619.228 177.315 615.629 180.798 612.059 184.323C606.973 189.345 601.921 194.354 596.343 198.848C589.503 204.358 580.379 209.522 576.13 217.447" stroke="black" stroke-width="3" stroke-linecap="round"/>
<path d="M579.018 217.917C586.885 213.927 593.399 208.071 599.246 201.574C607.96 191.892 617.758 183.846 627.968 175.788" stroke="black" stroke-width="3" stroke-linecap="round"/>
<path d="M632.605 166.626C627.541 173.269 623.545 180.63 618.501 187.287C612.731 194.901 605.829 201.243 598.62 207.448" stroke="black" stroke-width="3" stroke-linecap="round"/>
<path d="M557.17 267.25C568.527 261.265 577.99 253.054 586.73 243.779" stroke="black" stroke-width="3" stroke-linecap="round"/>
<path d="M691.747 126.805C690.071 133.826 685.962 140.515 682.927 147.007C680.4 152.412 678.187 157.992 675.364 163.256C672.584 168.438 669.011 172.955 665.541 177.673" stroke="black" stroke-width="3" stroke-linecap="round"/>
<path d="M643.469 192.976C654.069 181.22 662.852 168.148 671.418 154.889" stroke="black" stroke-width="3" stroke-linecap="round"/>
<path d="M683.143 128.301C682.635 130.271 681.665 132.154 680.633 133.894C677.898 138.511 675.093 143.044 672.461 147.726C667.86 155.909 662.74 163.641 656.3 170.526C653.116 173.929 649.638 177.07 646.237 180.253" stroke="black" stroke-width="3" stroke-linecap="round"/>
<path d="M686.032 132.462C685.749 133.97 685.044 135.321 684.344 136.678C681.909 141.399 678.968 145.819 675.831 150.105C668.752 159.779 661.029 168.948 654.049 178.7" stroke="black" stroke-width="3" stroke-linecap="round"/>
<path d="M646.583 193.989C644.556 196.31 642.886 199.031 640.947 201.439C637.848 205.287 634.641 209.007 631.684 212.967" stroke="black" stroke-width="3" stroke-linecap="round"/>
<path d="M622.33 224.958C620.065 228.166 617.329 231.1 614.885 234.183C612.485 237.211 609.874 240.039 607.242 242.868" stroke="black" stroke-width="3" stroke-linecap="round"/>
<path d="M592.152 257.086C590.117 258.552 588.084 260.338 586.835 262.537C586.313 263.456 586.106 263.874 585.249 264.504" stroke="black" stroke-width="3" stroke-linecap="round"/>
<path d="M575.775 263.301C577.408 262.405 579.286 261.918 580.976 261.123C584.825 259.311 588.437 256.966 591.678 254.224C599.364 247.722 605.008 239.249 611.747 231.85" stroke="black" stroke-width="3" stroke-linecap="round"/>
<path d="M601.394 246.669C607.028 242.215 612.466 237.593 616.878 231.893C622.124 225.114 626.046 217.522 629.267 209.631" stroke="black" stroke-width="3" stroke-linecap="round"/>
<path d="M645.883 188.93C644.257 192.512 642.12 195.692 640.085 199.049C636.087 205.642 631.943 211.974 626.993 217.921C619.54 226.877 609.973 234.675 604.941 245.34" stroke="black" stroke-width="3" stroke-linecap="round"/>
<path d="M588 255.735C587.758 256.61 586.979 256.99 586.281 257.488C585.114 258.321 584.231 259.428 582.991 260.183C580.708 261.572 577.97 262.644 575.964 264.37" stroke="black" stroke-width="3" stroke-linecap="round"/>
<path d="M575.983 264.108C581.542 261.219 587.547 259.011 592.871 255.701C596.763 253.281 599.973 249.712 603.508 246.82C610.495 241.104 616.865 235.142 620.859 226.962" stroke="black" stroke-width="3" stroke-linecap="round"/>
<path d="M595.916 275.02C597.805 274.657 599.539 273.022 600.966 271.864C605.417 268.253 609.784 264.439 613.687 260.246C617.668 255.967 621.234 251.38 623.884 246.162C625.812 242.365 627.282 238.345 628.827 234.385" stroke="black" stroke-width="3" stroke-linecap="round"/>
<path d="M631.034 233.224C624.013 245.337 618.351 258.209 608.347 268.288C604.306 272.359 599.726 275.873 595.793 280.05C594.318 281.616 593.132 283.115 592.279 285.044" stroke="black" stroke-width="3" stroke-linecap="round"/>
<path d="M538.193 346.436C547.697 338.809 557.967 332.919 565.694 323.222C574.076 312.703 580.164 300.129 584.897 287.638" stroke="black" stroke-width="3" stroke-linecap="round"/>
<path d="M591.949 279.362C587.098 284.155 582.275 289.035 578.174 294.493C572.718 301.754 568.634 309.982 564.115 317.82C557.684 328.973 549.872 339.265 543.027 350.156" stroke="black" stroke-width="3" stroke-linecap="round"/>
<path d="M539.402 348.547C540.799 345.876 542.845 343.574 544.847 341.338C552.148 333.186 559.504 325.167 566.157 316.465C575.19 304.651 584.003 292.58 592.554 280.418C597.101 273.95 601.468 267.481 603.877 259.953" stroke="black" stroke-width="3" stroke-linecap="round"/>
<path d="M422.122 376.657C422.056 376.989 421.706 377.073 422.329 376.935C426.329 376.047 430.405 373.168 433.987 371.35C445.26 365.629 455.635 359.16 465.428 351.156C473.37 344.665 480.77 337.623 487.996 330.367" stroke="black" stroke-width="3" stroke-linecap="round"/>
<path d="M439.278 374.503C446.635 367.852 454.859 362.297 462.339 355.794C469.893 349.225 476.295 341.836 481.98 333.652" stroke="black" stroke-width="3" stroke-linecap="round"/>
<path d="M465.192 344.949C468.144 342.667 471.415 340.847 474.664 339.021C481.192 335.353 487.632 331.531 494.078 327.724C503.48 322.171 512.946 316.642 522.067 310.641C524.874 308.794 527.394 307.12 529.9 304.916C532.051 303.024 532.351 301.701 533.724 299.523" stroke="black" stroke-width="3" stroke-linecap="round"/>
<path d="M537.083 300.1C531.346 302.523 526.069 306.002 520.55 308.864C511.219 313.703 501.647 318.026 492.46 323.144C488.156 325.543 483.702 327.906 479.726 330.828C478.513 331.721 477.534 332.91 476.205 333.579" stroke="black" stroke-width="3" stroke-linecap="round"/>
<path d="M441.971 346.333C451.964 343.877 461.832 341.189 471.742 338.4C480.028 336.068 488.042 333.01 495.115 328.023C503.526 322.091 508.536 314.022 513.912 305.54" stroke="black" stroke-width="3" stroke-linecap="round"/>
<path d="M487.784 342.844C490.72 341.3 494.037 340.4 497.067 339.041C503.715 336.058 509.936 332.014 515.352 327.157C523.042 320.261 528.372 310.786 531.574 301.058" stroke="black" stroke-width="3" stroke-linecap="round"/>
<path d="M395.902 372.426C397.964 367.777 400.571 363.567 403.23 359.236C407.9 351.627 412.417 343.925 417.071 336.306C422.967 326.656 429.044 317.114 434.744 307.347C438.387 301.106 441.097 295.136 443.392 288.362" stroke="black" stroke-width="3" stroke-linecap="round"/>
<path d="M420.68 292.146C415.833 306.778 412.681 322.133 410.123 337.312C408.869 344.757 407.477 352.392 407.108 359.944C406.958 363.022 407.209 365.507 408.441 368.255" stroke="black" stroke-width="3" stroke-linecap="round"/>
<path d="M406.409 363.383C408.641 354.924 411.642 346.574 414.215 338.204C416.076 332.152 418.023 326.185 420.864 320.501C424.23 313.77 428.501 307.846 432.912 301.796" stroke="black" stroke-width="3" stroke-linecap="round"/>
<path d="M421.348 325.619C422.395 319.957 427.665 315.074 430.995 310.644C437.022 302.624 441.811 294.38 445.662 285.147" stroke="black" stroke-width="3" stroke-linecap="round"/>
<path d="M428.023 236.959C426.514 243.192 424.7 249.347 423.179 255.578C420.8 265.324 419.035 275.207 416.567 284.931C413.951 295.237 410.193 305.661 409.431 316.329" stroke="black" stroke-width="3" stroke-linecap="round"/>
<path d="M415.926 306.325C418.633 297.416 422.621 288.965 424.954 279.92C426.771 272.873 427.986 265.643 430.302 258.73C431.839 254.143 434.046 250.105 436.557 246.008" stroke="black" stroke-width="3" stroke-linecap="round"/>
<path d="M437.628 211.983C436.177 217.081 435.243 222.341 434.213 227.534C432.414 236.598 430.168 245.613 427.564 254.483C424.928 263.465 420.698 271.557 417.374 280.243C416.15 283.442 415.629 286.692 415.387 290.08" stroke="black" stroke-width="3" stroke-linecap="round"/>
<path d="M419.187 303.519C424.094 297.952 427.128 290.681 430.03 283.959C435.312 271.724 439.601 259.185 443.662 246.514" stroke="black" stroke-width="3" stroke-linecap="round"/>
<path d="M446.062 212.922C444.572 214.418 443.959 217.547 443.234 219.454C441.593 223.774 440.221 228.167 438.25 232.361C434.567 240.198 429.824 247.849 427.332 256.155" stroke="black" stroke-width="3" stroke-linecap="round"/>
<path d="M426.996 260.858C431.655 250.103 438.136 239.927 444.873 230.357C450.577 222.253 456.29 213.952 463.481 207.072" stroke="black" stroke-width="3" stroke-linecap="round"/>
<path d="M438.058 201.209C434.956 211.149 433.99 221.206 433.17 231.548C432.441 240.734 431.275 250.43 426.487 258.458" stroke="black" stroke-width="3" stroke-linecap="round"/>
<path d="M435.315 225.324C437.712 212.062 439.084 198.928 439.524 185.446" stroke="black" stroke-width="3" stroke-linecap="round"/>
<path d="M407.406 374.78C415.811 375.379 423.869 376.298 431.979 373.332C439.913 370.43 446.396 365.261 448.801 357.246" stroke="black" stroke-width="3" stroke-linecap="round"/>
<path d="M404.904 362.976C404.295 368.368 402.743 373.82 400.435 378.712" stroke="black" stroke-width="3" stroke-linecap="round"/>
<path d="M398.334 376.902C403.107 373.45 406.346 368.18 409.137 363.124C412.499 357.035 415.617 351.08 417.93 344.528" stroke="black" stroke-width="3" stroke-linecap="round"/>
<path d="M410.05 353.378C415.723 339.778 421.053 326.635 424.69 312.347" stroke="black" stroke-width="3" stroke-linecap="round"/>
<path d="M415.779 320.016C426.656 300.776 428.56 277.36 430.953 255.895C432.902 238.421 435.958 221.431 441.062 204.577C444.095 194.565 447.563 184.672 450.693 174.692" stroke="black" stroke-width="3" stroke-linecap="round"/>
<path d="M439.354 239.763C441.314 225.998 454.469 213.13 463.833 204.077C489.977 178.802 521.278 161.528 554.169 146.633" stroke="black" stroke-width="3" stroke-linecap="round"/>
<path d="M526.685 172.356C538.844 169.669 550.862 163.543 561.658 157.563C572.502 151.556 581.518 144.452 584.749 132.204" stroke="black" stroke-width="3" stroke-linecap="round"/>
<path d="M533.416 163.978C548.279 149.39 565.733 137.715 579.356 121.855" stroke="black" stroke-width="3" stroke-linecap="round"/>
<path d="M519.155 168.497C526.543 163.441 535.548 159.551 543.771 156.042C552.881 152.155 562.361 149.229 571.533 145.502C581.946 141.271 590.748 135.617 600.002 129.415" stroke="black" stroke-width="3" stroke-linecap="round"/>
<path d="M599.097 142.084C606.571 133.341 614.454 124.965 623.39 117.672C631.912 110.717 641.477 105.414 649.631 98.0742" stroke="black" stroke-width="3" stroke-linecap="round"/>
<path d="M634.425 115.813C655.395 108.47 669.649 91.9995 676.085 71.1714" stroke="black" stroke-width="3" stroke-linecap="round"/>
<path d="M671.776 92.4544C678.648 88.7276 685.406 85.7868 691.052 80.1722C695.828 75.4235 700.253 69.9322 703.895 64.2945" stroke="black" stroke-width="3" stroke-linecap="round"/>
<path d="M693.89 102.888C694.801 95.5943 697.766 88.3699 699.888 81.3554C702.222 73.6432 706.288 62.2963 703.494 54.3014" stroke="black" stroke-width="3" stroke-linecap="round"/>
<path d="M524.892 314.503C530.639 310.914 537.636 309.493 543.58 306.116C554.767 299.76 565.232 291.677 575.741 284.295C585.523 277.423 595.879 270.584 602.945 260.767C604.764 258.239 606.022 255.841 606.243 252.759" stroke="black" stroke-width="3" stroke-linecap="round"/>
<path d="M601.411 257.951C599.333 264.575 594.543 270.942 589.785 275.883C579.967 286.078 567.825 294.11 557.155 303.392C545.073 313.901 533.021 324.442 520.38 334.295C510.794 341.767 500.772 347.209 489.846 352.419" stroke="black" stroke-width="3" stroke-linecap="round"/>
<path d="M420.994 371.872C429.537 364.52 438.675 360.467 449.276 356.664C469.762 349.314 489.57 341.767 509.131 332.202" stroke="black" stroke-width="3" stroke-linecap="round"/>
<path d="M435.295 366.802C444.797 363.938 453.828 358.87 462.795 354.737C474.979 349.12 487.2 343.577 499.475 338.158C520.088 329.06 540.786 320.153 561.381 311.013" stroke="black" stroke-width="3" stroke-linecap="round"/>
<path d="M572.707 300.747C580.185 286.492 585.834 271.601 595.101 258.27C606.858 241.356 615.845 224.685 622.464 205.198" stroke="black" stroke-width="3" stroke-linecap="round"/>
<path d="M634.452 170.068C631.87 179.159 627.062 187.909 622.492 196.127C615.464 208.768 607.156 220.598 598.013 231.813C581.118 252.536 562.37 270.406 541.36 286.889" stroke="black" stroke-width="3" stroke-linecap="round"/>
<path d="M497.486 339.123C498.932 336.948 501.197 335.374 503.198 333.748C508.345 329.563 513.445 325.346 518.507 321.06C531.883 309.736 546.378 300.055 560.714 289.99C569.847 283.578 578.873 277.048 587.653 270.165C598.537 261.632 609.874 252.875 618.533 242.009C625.673 233.048 628.914 222.915 630.906 211.889" stroke="black" stroke-width="3" stroke-linecap="round"/>
<path d="M657.939 153.472C652.505 174.694 639.787 194.056 627.499 211.892C609.974 237.329 590.179 261.161 569.965 284.498" stroke="black" stroke-width="3" stroke-linecap="round"/>
<path d="M19.7178 333.83C34.7018 396.171 65.5 454.36 89.6996 513.365" stroke="black" stroke-width="3"/>
<path d="M25.101 345.656C55.1419 415.648 84.1496 486.039 113.386 556.369" stroke="black" stroke-width="3"/>
<path d="M62.7835 409.084C77.9161 459.216 92.9929 508.065 116.616 554.995C125.078 571.805 134.493 586.061 144.608 601.521" stroke="black" stroke-width="3"/>
<path d="M118.769 516.591C126.193 541.979 134.239 571.513 143.651 596.504C172.543 673.216 139.183 580.545 166.141 642.373" stroke="black" stroke-width="3"/>
<path d="M116.616 535.942C115.103 527.604 112.608 519.457 111.232 511.096C110.32 505.55 108.231 499.76 109.618 494.313C110.295 491.652 114.375 488.361 116.616 489.953C133.004 501.598 153.123 544.71 158.126 557.324C203.264 671.122 151.297 559.533 187.674 676.775" stroke="black" stroke-width="3"/>
<path d="M105.849 461.762C128.963 509.593 151.582 557.558 173.678 605.821" stroke="black" stroke-width="3"/>
<path d="M114.462 471.438L165.065 658.499" stroke="black" stroke-width="3"/>
<path d="M162.911 629.472C166.334 584.439 160.686 538.977 158.605 494.014" stroke="black" stroke-width="3"/>
<path d="M175.831 486.489C193.921 529.234 212.246 571.854 230.74 614.422" stroke="black" stroke-width="3"/>
<path d="M158.605 485.414L223.203 601.521" stroke="black" stroke-width="3"/>
<path d="M173.678 524.116C189.555 560.097 204.691 596.665 222.187 631.921C224.746 637.077 225.193 638.393 228.587 641.298" stroke="black" stroke-width="3"/>
<path d="M237.2 648.823C235.967 622.111 233.572 575.856 233.132 547.528C230.701 390.947 233.851 593.698 235.047 510.14" stroke="black" stroke-width="3"/>
<path d="M191.981 525.191C210.075 546.909 222.528 560.232 237.319 584.439C271.336 640.106 238.991 594.262 269.499 652.049" stroke="black" stroke-width="3"/>
<path d="M237.2 596.146C246.042 614.399 255.792 630.594 267.286 647.211C271.298 653.012 275.553 661.096 281.342 664.95" stroke="black" stroke-width="3"/>
<path d="M282.419 661.724C277.166 620.637 263.831 581.218 253.349 541.317" stroke="black" stroke-width="3"/>
<path d="M250.12 533.792C266.064 566.713 283.129 599.47 296.595 633.534C301.62 646.246 304.946 659.523 310.292 672.117C313.927 680.679 319.64 687.315 324.408 695.051" stroke="black" stroke-width="3"/>
<path d="M327.638 698.277C338.812 690.334 336.172 672.479 338.404 660.649" stroke="black" stroke-width="3"/>
<path d="M330.868 681.076C332.032 669.321 333.882 653.507 334.098 641.418C334.857 598.957 333.337 652.386 331.945 620.872" stroke="black" stroke-width="3"/>
<path d="M287.634 518.689C302.271 540.723 317.426 562.879 327.624 587.432C333.481 601.532 336.016 611.684 336.293 626.416C336.296 626.574 334.428 647.79 334.331 648.909" stroke="black" stroke-width="3"/>
<path d="M319.525 550.534C335.572 585.283 351.36 620.144 366.792 655.165" stroke="black" stroke-width="3"/>
<path d="M367.361 666.537C386.21 644.741 405.363 623.432 424.879 602.28" stroke="black" stroke-width="3"/>
<path d="M334.833 539.306C346.966 572.144 359.059 604.996 371.087 637.872" stroke="black" stroke-width="3"/>
<path d="M373.6 642.89C379.414 624.204 387.269 598.111 394.06 579.21C419.556 508.249 387.494 598.769 407.341 548.983" stroke="black" stroke-width="3"/>
<path d="M409.136 546.474C408.672 562.229 407.878 591.678 407.142 608.6C402.019 726.242 408.654 575.714 405.546 628.911" stroke="black" stroke-width="3"/>
<path d="M435.698 541.814C438.724 562.545 443.139 591.616 445.669 612.981C455.34 694.652 442.715 590.409 448.261 647.908" stroke="black" stroke-width="3"/>
<path d="M431.75 651.492C454.222 618.696 477.137 586.202 499.95 553.643" stroke="black" stroke-width="3"/>
<path d="M469.08 615.291C501.68 578.004 533.304 539.851 565.279 502.029" stroke="black" stroke-width="3"/>
<path d="M495.806 633.023C553.509 572.311 615.762 516.242 676.641 458.801" stroke="black" stroke-width="3"/>
<path d="M553.73 579.416C582.663 526.76 614.786 475.82 645.56 424.239" stroke="black" stroke-width="3"/>
<path d="M509.227 578.711C553.136 534.122 595.991 488.543 639.203 443.284" stroke="black" stroke-width="3"/>
<path d="M514.878 589.291C553.3 536.485 592.096 483.947 630.726 431.292" stroke="black" stroke-width="3"/>
<path d="M635.671 431.292L537.483 581.532" stroke="black" stroke-width="3"/>
<path d="M627.194 422.828C595.341 452.433 541.739 502.413 507.893 533.333C329.687 696.134 560.707 485.047 461.193 574.479" stroke="black" stroke-width="3"/>
<path d="M440.001 621.738C418.819 586.591 397.915 551.313 377.133 515.935" stroke="black" stroke-width="3"/>
<path d="M437.882 549.086C434.371 567.712 433.939 587.438 433.094 606.298C432.505 619.462 432.365 632.564 432.937 645.719" stroke="black" stroke-width="3"/>
<path d="M435.057 664.764C446.311 624.694 457.855 584.75 469.67 544.854" stroke="black" stroke-width="3"/>
<path d="M502.87 521.578C488.678 543.435 467.33 575.965 453.187 598.931C394.103 694.877 470.496 571.283 432.937 635.139" stroke="black" stroke-width="3"/>
<path d="M384.197 638.666C366.482 598.754 352.771 556.859 337.575 515.935" stroke="black" stroke-width="3"/>
<path d="M360.18 529.336C365.912 568.355 371.548 607.385 377.133 646.425" stroke="black" stroke-width="3"/>
<path d="M375.014 530.747C370.306 567.181 366.323 605.096 371.442 641.683C372.101 646.386 373.278 651.036 374.857 655.516C375.288 656.74 376.116 658.843 377.368 658.494C379.995 657.762 377.842 629.094 377.839 628.791" stroke="black" stroke-width="3"/>
<path d="M298.149 552.461C313.366 578.438 323.406 607.498 334.602 635.34" stroke="black" stroke-width="3"/>
<path d="M302.075 563.101L314.413 635.34" stroke="black" stroke-width="3"/>
<path d="M289.737 560.301C299.955 583.185 310.652 605.86 321.142 628.62" stroke="black" stroke-width="3"/>
<path d="M306 588.86C311.592 605.785 317.939 622.482 323.946 639.26" stroke="black" stroke-width="3"/>
<path d="M356.474 564.221C360.186 576.476 361.947 582.895 366.382 595.02C376.29 622.112 369.268 601.058 380.028 628.62" stroke="black" stroke-width="3"/>
<path d="M418.164 559.181C425.6 580.435 433.822 601.07 442.279 621.9" stroke="black" stroke-width="3"/>
<path d="M176.512 94.4799C180.165 100.267 183.898 105.897 187.041 111.996C189.703 117.162 192.208 122.402 195.089 127.455C200.333 136.65 206.372 145.383 212.626 153.919C222.373 167.224 232.874 179.726 244.031 191.863C245.211 193.147 247.838 197.052 247.962 195.317" stroke="black" stroke-width="3" stroke-linecap="round"/>
<path d="M245.357 200.09C243.204 199.73 241.021 197.827 239.353 196.603C230.772 190.309 223.177 182.593 217.174 173.813C210.89 164.623 206.867 154.524 202.903 144.203C200.349 137.555 197.47 131.047 194.74 124.471" stroke="black" stroke-width="3" stroke-linecap="round"/>
<path d="M189.03 125.189C190.571 127.245 191.636 129.639 193.087 131.765C198.982 140.403 205.968 148.293 212.148 156.733C217.864 164.541 223.129 172.657 228.903 180.426C232.229 184.902 235.666 189.154 238.438 193.971" stroke="black" stroke-width="3" stroke-linecap="round"/>
<path d="M205.246 151.662C200.262 145.949 194.091 141.448 189.116 135.747C186.084 132.273 183.357 128.246 181.314 124.112C180.558 122.582 180.014 120.961 179.256 119.43" stroke="black" stroke-width="3" stroke-linecap="round"/>
<path d="M175.355 118.589C175.476 119.08 175.791 119.39 176.088 119.802C176.954 121.004 177.595 122.269 178.111 123.656C180.78 130.825 181.843 138.468 184.179 145.732C186.021 151.462 188.862 157.256 192.623 162.015" stroke="black" stroke-width="3" stroke-linecap="round"/>
<path d="M192.5 155.817C184.814 151.278 176.805 147.147 169.473 142.05C161.849 136.751 154.969 130.58 148.821 123.64C144.418 118.669 140.221 113.509 135.902 108.465" stroke="black" stroke-width="3" stroke-linecap="round"/>
<path d="M157.422 124.063C156.658 122.302 154.523 120.969 153.074 119.861C145.829 114.324 137.655 109.988 129.662 105.637C117.58 99.0604 105.258 92.9478 93.08 86.5526C89.0791 84.4514 85.7977 82.7208 81.9874 80.3871C78.9369 78.5188 76.5964 76.3954 73.8407 74.226" stroke="black" stroke-width="3" stroke-linecap="round"/>
<path d="M84.6544 65.432C89.8604 75.0289 98.5045 82.8916 106.648 89.8761C113.985 96.1685 121.615 102.113 129.042 108.297C132.619 111.275 136.134 114.331 139.806 117.182" stroke="black" stroke-width="3" stroke-linecap="round"/>
<path d="M139.44 106.467C138.738 105.294 136.768 104.392 135.685 103.65C132.036 101.148 128.155 99.0609 124.333 96.8343C115.412 91.6361 106.574 85.9245 99.5784 78.31" stroke="black" stroke-width="3" stroke-linecap="round"/>
<path d="M85.3774 63.2335C83.7426 61.912 81.9665 60.9777 80.0599 60.0808C74.3087 57.3755 68.711 54.3996 63.3262 51.0319C55.3858 46.0658 47.1295 40.7606 40.4886 34.156" stroke="black" stroke-width="3" stroke-linecap="round"/>
<path d="M43.0667 45.5911C45.5599 48.4407 48.5098 50.6052 51.5528 52.858C58.3797 57.9119 65.023 63.1994 70.9684 69.2682C76.9069 75.3301 82.4065 81.7594 88.844 87.3297C90.9224 89.1281 93.1345 90.767 95.1607 92.6224" stroke="black" stroke-width="3" stroke-linecap="round"/>
<path d="M105.268 105.677C105.919 106.235 106.644 106.799 107.106 107.531C107.231 107.73 104.328 104.303 103.969 103.803C97.4416 94.7237 91.7888 85.2975 86.1866 75.6681" stroke="black" stroke-width="3" stroke-linecap="round"/>
<path d="M24.1279 49.3058C24.7581 53.8229 27.0724 58.4268 28.9063 62.5391C34.0052 73.9728 41.1905 83.8608 48.6738 93.8648C54.1124 101.135 59.4716 108.589 64.3347 116.254C67.4144 121.108 70.5306 125.255 75.0283 128.883" stroke="black" stroke-width="3" stroke-linecap="round"/>
<path d="M82.3872 128.845C78.9098 124.999 75.5893 121.097 72.8117 116.705C69.4994 111.466 67.0738 105.771 64.2805 100.256C59.4546 90.7279 52.9602 82.1105 48.5059 72.4213" stroke="black" stroke-width="3" stroke-linecap="round"/>
<path d="M85.0823 130.724C85.3967 134.714 87.4383 138.829 88.839 142.524C93.4453 154.675 100.153 165.92 107.608 176.553C115.836 188.29 125.866 198.008 136.053 208.024C142.463 214.325 148.045 221.377 155.171 226.859" stroke="black" stroke-width="3" stroke-linecap="round"/>
<path d="M166.36 252.41C165.577 250.94 164.43 249.661 163.445 248.325C160.062 243.742 157.163 238.811 153.976 234.094C149.211 227.042 144.23 220.118 139.964 212.746C135.263 204.623 131.906 196.004 128.574 187.27" stroke="black" stroke-width="3" stroke-linecap="round"/>
<path d="M89.4693 140.601C92.2039 144.797 95.2496 148.757 98.2602 152.756C102.55 158.453 106.809 164.132 111.657 169.375C117.602 175.804 125.842 182.212 128.897 190.668" stroke="black" stroke-width="3" stroke-linecap="round"/>
<path d="M126.043 191.028C118.843 185.913 113.247 179.122 108.401 171.786C101.178 160.852 92.6513 151.401 83.7194 141.879" stroke="black" stroke-width="3" stroke-linecap="round"/>
<path d="M80.4183 132.643C84.4943 139.949 87.4077 147.817 91.4613 155.134C96.0983 163.504 102.039 170.773 108.304 177.95" stroke="black" stroke-width="3" stroke-linecap="round"/>
<path d="M140.459 242.689C130.124 235.227 121.967 225.851 114.672 215.535" stroke="black" stroke-width="3" stroke-linecap="round"/>
<path d="M27.2783 84.4114C27.9407 91.6189 31.0658 98.8437 33.1528 105.719C34.8904 111.444 36.2922 117.298 38.3441 122.924C40.3641 128.463 43.2668 133.455 46.0388 138.632" stroke="black" stroke-width="3" stroke-linecap="round"/>
<path d="M65.6698 156.909C56.9722 143.819 50.2362 129.688 43.7375 115.402" stroke="black" stroke-width="3" stroke-linecap="round"/>
<path d="M35.5633 87.2519C35.7882 89.2732 36.4857 91.2744 37.2642 93.1437C39.329 98.102 41.4757 102.986 43.4293 107.995C46.8427 116.747 50.8382 125.127 56.2685 132.856C58.9532 136.678 61.9681 140.28 64.9007 143.914" stroke="black" stroke-width="3" stroke-linecap="round"/>
<path d="M32.4683 90.9698C32.5316 92.4976 33.0301 93.9311 33.5221 95.369C35.2338 100.372 37.4827 105.149 39.9412 109.821C45.4895 120.367 51.7379 130.504 57.1787 141.114" stroke="black" stroke-width="3" stroke-linecap="round"/>
<path d="M62.7748 157.828C64.3828 160.365 65.595 163.242 67.1069 165.852C69.523 170.022 72.0594 174.082 74.324 178.342" stroke="black" stroke-width="3" stroke-linecap="round"/>
<path d="M81.849 191.817C83.6904 195.244 86.048 198.471 88.088 201.802C90.0913 205.074 92.3373 208.181 94.6041 211.292" stroke="black" stroke-width="3" stroke-linecap="round"/>
<path d="M107.559 227.968C109.321 229.698 111.036 231.743 111.935 234.085C112.31 235.064 112.452 235.505 113.192 236.246" stroke="black" stroke-width="3" stroke-linecap="round"/>
<path d="M122.803 236.367C121.304 235.239 119.502 234.484 117.932 233.448C114.356 231.089 111.093 228.23 108.256 225.029C101.529 217.437 97.1186 208.169 91.4631 199.816" stroke="black" stroke-width="3" stroke-linecap="round"/>
<path d="M99.9141 216.171C94.919 210.984 90.1433 205.661 86.5473 199.423C82.2706 192.003 79.4339 183.97 77.3389 175.743" stroke="black" stroke-width="3" stroke-linecap="round"/>
<path d="M63.6978 152.83C64.8146 156.592 66.5015 160.03 68.0611 163.628C71.1242 170.695 74.3717 177.525 78.4808 184.091C84.6683 193.977 93.138 203.024 96.6562 214.251" stroke="black" stroke-width="3" stroke-linecap="round"/>
<path d="M111.58 227.129C111.693 228.036 112.404 228.525 113.017 229.121C114.044 230.118 114.753 231.347 115.862 232.275C117.904 233.984 120.438 235.441 122.16 237.447" stroke="black" stroke-width="3" stroke-linecap="round"/>
<path d="M122.2 236.887C117.153 233.23 111.572 230.186 106.815 226.142C103.338 223.186 100.693 219.184 97.6338 215.81C91.586 209.14 86.1783 202.312 83.4181 193.617" stroke="black" stroke-width="3" stroke-linecap="round"/>
<path d="M101.252 244.959C99.4356 244.334 97.952 242.479 96.704 241.138C92.8122 236.953 89.0319 232.579 85.7658 227.898C82.4332 223.122 79.5552 218.101 77.6737 212.588C76.3043 208.576 75.4195 204.41 74.4532 200.292" stroke="black" stroke-width="3" stroke-linecap="round"/>
<path d="M72.3212 198.452C77.5542 211.437 81.3336 224.979 89.8114 236.373C93.2358 240.975 97.2739 245.103 100.576 249.794C101.815 251.553 102.776 253.205 103.348 255.235" stroke="black" stroke-width="3" stroke-linecap="round"/>
<path d="M148.212 324.256C139.905 315.317 130.594 307.997 124.338 297.251C117.552 285.594 113.326 272.216 110.427 259.115" stroke="black" stroke-width="3" stroke-linecap="round"/>
<path d="M104.311 249.677C108.457 255.15 112.562 260.704 115.866 266.732C120.26 274.751 123.15 283.538 126.53 291.999C131.338 304.038 137.646 315.415 142.905 327.253" stroke="black" stroke-width="3" stroke-linecap="round"/>
<path d="M146.403 325.814C145.409 322.967 143.725 320.393 142.075 317.893C136.057 308.772 129.967 299.777 124.664 290.203C117.465 277.205 110.516 263.983 103.84 250.708C100.29 243.649 96.9163 236.613 95.6163 228.805" stroke="black" stroke-width="3" stroke-linecap="round"/>
<path d="M258.506 370.579C258.524 370.919 258.857 371.053 258.264 370.826C254.46 369.373 250.865 365.922 247.603 363.599C237.341 356.289 228.066 348.361 219.582 338.982C212.702 331.377 206.432 323.298 200.364 315.031" stroke="black" stroke-width="3" stroke-linecap="round"/>
<path d="M242.004 365.818C235.697 358.196 228.38 351.535 221.931 344.041C215.418 336.472 210.157 328.253 205.714 319.35" stroke="black" stroke-width="3" stroke-linecap="round"/>
<path d="M220.598 332.788C218.009 330.123 215.039 327.867 212.092 325.61C206.17 321.074 200.357 316.4 194.536 311.739C186.047 304.941 177.49 298.157 169.34 290.957C166.831 288.741 164.583 286.736 162.422 284.21C160.568 282.042 160.459 280.697 159.413 278.358" stroke="black" stroke-width="3" stroke-linecap="round"/>
<path d="M156.035 278.117C161.348 281.36 166.056 285.595 171.091 289.247C179.605 295.422 188.429 301.113 196.76 307.548C200.664 310.562 204.719 313.563 208.224 317.055C209.293 318.122 210.089 319.453 211.304 320.311" stroke="black" stroke-width="3" stroke-linecap="round"/>
<path d="M243.441 337.791C233.898 333.928 224.512 329.853 215.098 325.671C207.228 322.174 199.73 317.994 193.439 312.029C185.957 304.935 182.148 296.198 178.035 286.998" stroke="black" stroke-width="3" stroke-linecap="round"/>
<path d="M198.318 327.825C195.636 325.876 192.486 324.514 189.685 322.736C183.538 318.834 177.965 313.939 173.303 308.352C166.684 300.419 162.763 290.263 160.982 280.157" stroke="black" stroke-width="3" stroke-linecap="round"/>
<path d="M285.275 370.026C283.903 365.115 281.932 360.563 279.927 355.883C276.405 347.661 273.049 339.37 269.544 331.141C265.104 320.718 260.471 310.376 256.241 299.865C253.538 293.148 251.715 286.833 250.415 279.777" stroke="black" stroke-width="3" stroke-linecap="round"/>
<path d="M271.972 286.938C274.82 302.138 275.826 317.808 276.25 333.218C276.458 340.776 276.778 348.543 276.063 356.08C275.772 359.152 275.155 361.578 273.494 364.123" stroke="black" stroke-width="3" stroke-linecap="round"/>
<path d="M276.424 359.269C275.421 350.566 273.642 341.863 272.288 333.199C271.31 326.935 270.234 320.743 268.234 314.706C265.865 307.555 262.486 301.076 258.986 294.452" stroke="black" stroke-width="3" stroke-linecap="round"/>
<path d="M266.798 319.764C266.564 314.012 262.023 308.431 259.346 303.574C254.499 294.781 250.915 285.942 248.403 276.258" stroke="black" stroke-width="3" stroke-linecap="round"/>
<path d="M272.553 231.282C273.171 237.647 274.102 243.979 274.731 250.344C275.714 260.3 276.066 270.303 277.141 280.25C278.281 290.792 280.543 301.613 279.783 312.249" stroke="black" stroke-width="3" stroke-linecap="round"/>
<path d="M274.873 301.773C273.451 292.555 270.687 283.609 269.656 274.31C268.853 267.064 268.675 259.724 267.356 252.54C266.48 247.774 264.86 243.456 262.946 239.037" stroke="black" stroke-width="3" stroke-linecap="round"/>
<path d="M267.074 205.012C267.769 210.276 267.936 215.629 268.207 220.928C268.68 230.178 269.596 239.443 270.88 248.613C272.181 257.899 275.161 266.527 277.174 275.616C277.916 278.964 277.965 282.263 277.722 285.66" stroke="black" stroke-width="3" stroke-linecap="round"/>
<path d="M272.298 298.214C268.113 292.023 266.076 284.421 264.094 277.379C260.486 264.562 257.931 251.588 255.627 238.516" stroke="black" stroke-width="3" stroke-linecap="round"/>
<path d="M258.026 204.931C259.307 206.62 259.475 209.796 259.929 211.782C260.957 216.28 261.705 220.811 263.082 225.232C265.656 233.493 269.319 241.72 270.631 250.274" stroke="black" stroke-width="3" stroke-linecap="round"/>
<path d="M270.311 254.752C267.205 243.469 262.204 232.498 256.861 222.089C252.338 213.276 247.834 204.267 241.656 196.451" stroke="black" stroke-width="3" stroke-linecap="round"/>
<path d="M267.834 194.377C269.454 204.631 268.977 214.702 268.319 225.033C267.734 234.209 267.504 243.95 271.034 252.553" stroke="black" stroke-width="3" stroke-linecap="round"/>
<path d="M267.24 218.527C266.634 205.129 267.103 192.008 268.62 178.68" stroke="black" stroke-width="3" stroke-linecap="round"/>
<path d="M273.333 370.854C264.921 370.255 256.806 370.027 249.198 365.885C241.754 361.833 236.073 355.709 234.839 347.305" stroke="black" stroke-width="3" stroke-linecap="round"/>
<path d="M277.55 359.349C277.396 364.671 278.183 370.185 279.808 375.263" stroke="black" stroke-width="3" stroke-linecap="round"/>
<path d="M282.14 374.304C277.991 370.154 275.591 364.393 273.596 358.911C271.193 352.308 269.007 345.876 267.69 338.956" stroke="black" stroke-width="3" stroke-linecap="round"/>
<path d="M273.766 348.952C270.243 334.657 266.984 320.864 265.505 306.169" stroke="black" stroke-width="3" stroke-linecap="round"/>
<path d="M272.787 315.127C264.834 294.525 266.282 271.051 266.973 249.444C267.536 231.852 266.942 214.584 264.318 197.162C262.76 186.812 260.757 176.519 259.097 166.188" stroke="black" stroke-width="3" stroke-linecap="round"/>
<path d="M261.174 232.159C261.19 218.261 250.007 203.665 242.031 193.381C219.763 164.668 191.257 143.141 160.84 123.744" stroke="black" stroke-width="3" stroke-linecap="round"/>
<path d="M184.215 152.977C172.628 148.586 161.669 140.798 151.892 133.328C142.071 125.825 134.206 117.492 132.764 104.866" stroke="black" stroke-width="3" stroke-linecap="round"/>
<path d="M178.662 143.58C165.99 127.163 150.336 113.24 139.074 95.7512" stroke="black" stroke-width="3" stroke-linecap="round"/>
<path d="M192.337 150.18C185.741 144.107 177.378 138.962 169.735 134.308C161.267 129.151 152.296 124.898 143.744 119.892C134.035 114.209 126.123 107.341 117.843 99.8647" stroke="black" stroke-width="3" stroke-linecap="round"/>
<path d="M116.924 112.739C110.75 102.983 104.119 93.5336 96.2882 85.0107C88.82 76.8826 80.08 70.249 73.0316 61.7912" stroke="black" stroke-width="3" stroke-linecap="round"/>
<path d="M85.7466 81.8255C66.0312 71.5449 54.2657 53.1429 50.8624 31.5194" stroke="black" stroke-width="3" stroke-linecap="round"/>
<path d="M52.1177 53.5496C45.8757 48.82 39.6332 44.8974 34.8694 38.4433C30.8403 32.9847 27.2632 26.829 24.4786 20.6375" stroke="black" stroke-width="3" stroke-linecap="round"/>
<path d="M28.435 60.302C28.5788 53.0024 26.744 45.485 25.6876 38.2912C24.5262 30.3818 22.2114 18.657 26.0045 11.1825" stroke="black" stroke-width="3" stroke-linecap="round"/>
<path d="M165.652 293.992C160.472 289.626 153.747 287.228 148.342 283.044C138.168 275.17 128.956 265.688 119.601 256.894C110.893 248.708 101.612 240.473 96.0111 229.758C94.5692 226.999 93.6642 224.448 93.8843 221.367" stroke="black" stroke-width="3" stroke-linecap="round"/>
<path d="M97.9883 227.286C99.1104 234.137 102.965 241.118 106.991 246.684C115.297 258.167 126.222 267.841 135.506 278.542C146.018 290.659 156.496 302.802 167.657 314.348C176.122 323.104 185.308 329.913 195.427 336.621" stroke="black" stroke-width="3" stroke-linecap="round"/>
<path d="M260.663 366.022C253.241 357.5 244.759 352.174 234.79 346.887C215.526 336.67 196.962 326.354 178.93 314.067" stroke="black" stroke-width="3" stroke-linecap="round"/>
<path d="M247.028 358.862C238.02 354.684 229.792 348.392 221.494 343.034C210.219 335.754 198.897 328.54 187.504 321.443C168.372 309.525 149.129 297.785 130.021 285.828" stroke="black" stroke-width="3" stroke-linecap="round"/>
<path d="M120.687 273.911C115.299 258.75 111.816 243.221 104.523 228.721C95.2695 210.324 88.729 192.56 84.9378 172.346" stroke="black" stroke-width="3" stroke-linecap="round"/>
<path d="M77.9664 135.28C79.2312 144.669 82.7514 154.036 86.1108 162.841C91.2781 176.385 97.8294 189.306 105.296 201.734C119.095 224.701 135.135 245.099 153.617 264.442" stroke="black" stroke-width="3" stroke-linecap="round"/>
<path d="M189.63 322.706C188.507 320.338 186.486 318.452 184.736 316.552C180.231 311.662 175.777 306.746 171.371 301.768C159.727 288.613 146.741 276.932 133.967 264.892C125.829 257.222 117.814 249.451 110.092 241.362C100.522 231.336 90.5334 221.022 83.5002 208.993C77.7004 199.074 75.9334 188.543 75.5299 177.303" stroke="black" stroke-width="3" stroke-linecap="round"/>
<path d="M57.2894 115.805C59.6249 137.577 69.3871 158.538 78.942 177.928C92.5688 205.58 108.656 231.965 125.224 257.919" stroke="black" stroke-width="3" stroke-linecap="round"/>
<path d="M542.773 124.747C538.338 129.941 533.846 134.969 529.872 140.542C526.506 145.263 523.284 150.08 519.717 154.658C513.225 162.99 506.011 170.753 498.613 178.292C487.083 190.042 474.921 200.894 462.162 211.292C460.813 212.391 457.66 215.873 457.783 214.144" stroke="black" stroke-width="3" stroke-linecap="round"/>
<path d="M459.824 219.035C462.007 218.984 464.438 217.417 466.264 216.447C475.653 211.456 484.267 204.923 491.456 197.118C498.982 188.947 504.398 179.56 509.787 169.947C513.259 163.754 517.033 157.746 520.669 151.65" stroke="black" stroke-width="3" stroke-linecap="round"/>
<path d="M525.878 153.075C524.065 154.896 522.674 157.119 520.939 159.022C513.892 166.755 505.875 173.591 498.576 181.087C491.823 188.021 485.473 195.326 478.67 202.213C474.751 206.181 470.753 209.911 467.332 214.296" stroke="black" stroke-width="3" stroke-linecap="round"/>
<path d="M506.4 176.793C512.128 171.863 518.855 168.295 524.571 163.376C528.055 160.377 531.317 156.791 533.919 153.002C534.881 151.601 535.648 150.079 536.613 148.675" stroke="black" stroke-width="3" stroke-linecap="round"/>
<path d="M540.371 148.325C540.182 148.796 539.826 149.06 539.474 149.428C538.447 150.502 537.635 151.669 536.928 152.976C533.271 159.731 531.134 167.187 527.793 174.084C525.157 179.524 521.527 184.887 517.135 189.089" stroke="black" stroke-width="3" stroke-linecap="round"/>
<path d="M518.414 182.797C526.603 179.434 535.052 176.515 542.971 172.557C551.206 168.441 558.833 163.368 565.85 157.439C570.875 153.193 575.723 148.732 580.676 144.401" stroke="black" stroke-width="3" stroke-linecap="round"/>
<path d="M557.489 156.646C558.493 155.015 560.788 154.001 562.374 153.112C570.305 148.669 578.982 145.542 587.483 142.376C600.333 137.59 613.353 133.297 626.271 128.703C630.516 127.194 633.997 125.949 638.087 124.184C641.36 122.77 643.97 121.004 646.996 119.252" stroke="black" stroke-width="3" stroke-linecap="round"/>
<path d="M637.631 109.092C631.108 117.784 621.421 124.287 612.356 129.997C604.188 135.142 595.779 139.903 587.537 144.929C583.568 147.349 579.649 149.853 575.603 152.135" stroke="black" stroke-width="3" stroke-linecap="round"/>
<path d="M577.674 141.736C578.533 140.675 580.602 140.061 581.774 139.479C585.726 137.519 589.847 136.002 593.929 134.339C603.459 130.456 612.979 126.053 620.954 119.506" stroke="black" stroke-width="3" stroke-linecap="round"/>
<path d="M637.535 106.712C639.343 105.626 641.236 104.946 643.253 104.322C649.336 102.44 655.306 100.266 661.122 97.6699C669.697 93.8422 678.633 89.7208 686.155 84.0721" stroke="black" stroke-width="3" stroke-linecap="round"/>
<path d="M681.65 95.0896C678.788 97.553 675.573 99.2749 672.253 101.071C664.806 105.1 657.506 109.385 650.784 114.542C644.07 119.692 637.736 125.268 630.6 129.862C628.296 131.345 625.882 132.652 623.622 134.199" stroke="black" stroke-width="3" stroke-linecap="round"/>
<path d="M611.625 146C610.91 146.463 610.12 146.92 609.565 147.582C609.414 147.762 612.739 144.768 613.161 144.322C620.832 136.227 627.697 127.664 634.541 118.892" stroke="black" stroke-width="3" stroke-linecap="round"/>
<path d="M699.77 101.654C698.508 106.035 695.577 110.265 693.187 114.076C686.545 124.671 678.067 133.442 669.279 142.285C662.892 148.712 656.558 155.331 650.682 162.23C646.961 166.599 643.304 170.263 638.36 173.218" stroke="black" stroke-width="3" stroke-linecap="round"/>
<path d="M630.773 171.623C634.767 168.324 638.613 164.947 641.991 161.01C646.019 156.315 649.233 151.044 652.785 146.003C658.923 137.293 666.586 129.718 672.378 120.796" stroke="black" stroke-width="3" stroke-linecap="round"/>
<path d="M628.264 173.289C627.385 177.198 624.777 180.985 622.864 184.448C616.572 195.835 608.328 206.025 599.431 215.504C589.61 225.966 578.292 234.172 566.776 242.65C559.53 247.985 552.997 254.18 545.159 258.601" stroke="black" stroke-width="3" stroke-linecap="round"/>
<path d="M530.187 282.32C531.179 280.969 532.505 279.86 533.679 278.672C537.708 274.596 541.303 270.104 545.157 265.867C550.917 259.531 556.875 253.355 562.184 246.63C568.033 239.22 572.614 231.125 577.185 222.913" stroke="black" stroke-width="3" stroke-linecap="round"/>
<path d="M622.551 182.639C619.228 186.398 615.629 189.88 612.059 193.405C606.973 198.428 601.921 203.436 596.343 207.93C589.503 213.441 580.379 218.604 576.13 226.53" stroke="black" stroke-width="3" stroke-linecap="round"/>
<path d="M579.018 226.999C586.885 223.009 593.399 217.153 599.246 210.657C607.96 200.975 617.758 192.928 627.968 184.87" stroke="black" stroke-width="3" stroke-linecap="round"/>
<path d="M632.605 175.708C627.541 182.351 623.545 189.713 618.501 196.369C612.731 203.983 605.829 210.326 598.62 216.53" stroke="black" stroke-width="3" stroke-linecap="round"/>
<path d="M557.17 276.332C568.527 270.347 577.99 262.136 586.73 252.861" stroke="black" stroke-width="3" stroke-linecap="round"/>
<path d="M691.747 135.887C690.071 142.908 685.962 149.598 682.927 156.09C680.4 161.494 678.187 167.075 675.364 172.338C672.584 177.52 669.011 182.037 665.541 186.756" stroke="black" stroke-width="3" stroke-linecap="round"/>
<path d="M643.469 202.058C654.069 190.302 662.852 177.23 671.418 163.971" stroke="black" stroke-width="3" stroke-linecap="round"/>
<path d="M683.143 137.384C682.635 139.353 681.664 141.236 680.633 142.977C677.898 147.594 675.093 152.126 672.461 156.809C667.86 164.991 662.74 172.724 656.3 179.608C653.116 183.012 649.638 186.153 646.237 189.336" stroke="black" stroke-width="3" stroke-linecap="round"/>
<path d="M686.032 141.544C685.749 143.052 685.044 144.403 684.344 145.76C681.909 150.481 678.968 154.901 675.831 159.187C668.752 168.861 661.029 178.03 654.049 187.782" stroke="black" stroke-width="3" stroke-linecap="round"/>
<path d="M646.583 203.071C644.556 205.392 642.886 208.113 640.947 210.521C637.848 214.369 634.641 218.089 631.685 222.049" stroke="black" stroke-width="3" stroke-linecap="round"/>
<path d="M622.33 234.04C620.065 237.248 617.329 240.182 614.885 243.265C612.485 246.293 609.874 249.122 607.242 251.95" stroke="black" stroke-width="3" stroke-linecap="round"/>
<path d="M592.152 266.168C590.117 267.634 588.084 269.42 586.835 271.619C586.313 272.538 586.106 272.956 585.249 273.586" stroke="black" stroke-width="3" stroke-linecap="round"/>
<path d="M575.775 272.384C577.408 271.488 579.286 271.001 580.976 270.206C584.825 268.394 588.437 266.048 591.678 263.307C599.364 256.804 605.008 248.332 611.747 240.932" stroke="black" stroke-width="3" stroke-linecap="round"/>
<path d="M601.394 255.751C607.028 251.297 612.466 246.675 616.878 240.975C622.124 234.196 626.046 226.604 629.267 218.713" stroke="black" stroke-width="3" stroke-linecap="round"/>
<path d="M645.883 198.012C644.257 201.594 642.12 204.774 640.085 208.131C636.087 214.724 631.943 221.056 626.993 227.003C619.54 235.959 609.973 243.757 604.941 254.422" stroke="black" stroke-width="3" stroke-linecap="round"/>
<path d="M588 264.817C587.758 265.692 586.979 266.072 586.281 266.57C585.114 267.404 584.231 268.511 582.991 269.265C580.708 270.654 577.97 271.726 575.964 273.452" stroke="black" stroke-width="3" stroke-linecap="round"/>
<path d="M575.983 273.19C581.542 270.302 587.547 268.094 592.871 264.783C596.763 262.363 599.973 258.794 603.508 255.902C610.495 250.186 616.865 244.224 620.859 236.044" stroke="black" stroke-width="3" stroke-linecap="round"/>
<path d="M595.916 284.102C597.805 283.739 599.539 282.104 600.966 280.946C605.417 277.335 609.784 273.521 613.687 269.328C617.668 265.049 621.234 260.462 623.884 255.244C625.812 251.447 627.282 247.427 628.827 243.467" stroke="black" stroke-width="3" stroke-linecap="round"/>
<path d="M631.034 242.306C624.013 254.42 618.351 267.292 608.347 277.37C604.306 281.441 599.726 284.956 595.793 289.132C594.318 290.698 593.132 292.198 592.279 294.126" stroke="black" stroke-width="3" stroke-linecap="round"/>
<path d="M538.193 355.518C547.697 347.891 557.967 342.001 565.694 332.304C574.076 321.785 580.164 309.211 584.897 296.72" stroke="black" stroke-width="3" stroke-linecap="round"/>
<path d="M591.949 288.444C587.098 293.237 582.275 298.117 578.174 303.575C572.718 310.836 568.634 319.064 564.115 326.902C557.684 338.055 549.872 348.347 543.027 359.238" stroke="black" stroke-width="3" stroke-linecap="round"/>
<path d="M539.402 357.629C540.799 354.958 542.845 352.656 544.847 350.42C552.148 342.268 559.504 334.249 566.157 325.547C575.19 313.733 584.003 301.662 592.554 289.5C597.101 283.032 601.468 276.563 603.877 269.035" stroke="black" stroke-width="3" stroke-linecap="round"/>
<path d="M422.122 385.739C422.056 386.071 421.706 386.155 422.329 386.017C426.329 385.129 430.405 382.25 433.987 380.432C445.26 374.711 455.635 368.242 465.428 360.238C473.37 353.747 480.77 346.705 487.996 339.449" stroke="black" stroke-width="3" stroke-linecap="round"/>
<path d="M439.278 383.585C446.635 376.934 454.859 371.38 462.339 364.876C469.893 358.308 476.295 350.918 481.98 342.735" stroke="black" stroke-width="3" stroke-linecap="round"/>
<path d="M465.192 354.031C468.144 351.749 471.415 349.929 474.664 348.103C481.192 344.435 487.632 340.613 494.078 336.806C503.48 331.253 512.946 325.724 522.067 319.723C524.874 317.876 527.394 316.203 529.9 313.998C532.051 312.106 532.351 310.783 533.723 308.605" stroke="black" stroke-width="3" stroke-linecap="round"/>
<path d="M537.083 309.182C531.346 311.605 526.069 315.084 520.55 317.946C511.219 322.785 501.647 327.108 492.46 332.226C488.156 334.625 483.702 336.988 479.726 339.91C478.513 340.803 477.534 341.992 476.205 342.661" stroke="black" stroke-width="3" stroke-linecap="round"/>
<path d="M441.971 355.415C451.964 352.959 461.832 350.271 471.742 347.482C480.028 345.15 488.042 342.092 495.115 337.105C503.526 331.173 508.536 323.104 513.912 314.622" stroke="black" stroke-width="3" stroke-linecap="round"/>
<path d="M487.784 351.926C490.72 350.382 494.037 349.483 497.067 348.123C503.715 345.141 509.936 341.097 515.352 336.24C523.042 329.343 528.372 319.868 531.574 310.141" stroke="black" stroke-width="3" stroke-linecap="round"/>
<path d="M395.902 381.508C397.964 376.859 400.571 372.649 403.23 368.318C407.9 360.709 412.417 353.007 417.071 345.388C422.967 335.738 429.044 326.196 434.744 316.429C438.387 310.188 441.097 304.218 443.392 297.444" stroke="black" stroke-width="3" stroke-linecap="round"/>
<path d="M420.68 301.228C415.833 315.86 412.681 331.215 410.123 346.394C408.869 353.839 407.477 361.474 407.108 369.026C406.958 372.104 407.209 374.589 408.441 377.337" stroke="black" stroke-width="3" stroke-linecap="round"/>
<path d="M406.409 372.465C408.641 364.006 411.642 355.657 414.215 347.286C416.076 341.235 418.023 335.267 420.864 329.584C424.23 322.852 428.501 316.928 432.912 310.878" stroke="black" stroke-width="3" stroke-linecap="round"/>
<path d="M421.348 334.701C422.395 329.039 427.665 324.156 430.995 319.726C437.022 311.706 441.811 303.462 445.662 294.229" stroke="black" stroke-width="3" stroke-linecap="round"/>
<path d="M428.023 246.041C426.514 252.274 424.7 258.429 423.179 264.66C420.8 274.406 419.035 284.289 416.567 294.013C413.951 304.319 410.193 314.743 409.431 325.411" stroke="black" stroke-width="3" stroke-linecap="round"/>
<path d="M415.926 315.407C418.633 306.498 422.621 298.047 424.954 289.002C426.771 281.955 427.986 274.725 430.302 267.812C431.839 263.225 434.046 259.187 436.557 255.09" stroke="black" stroke-width="3" stroke-linecap="round"/>
<path d="M437.628 221.065C436.177 226.163 435.243 231.423 434.213 236.616C432.414 245.68 430.168 254.695 427.564 263.565C424.928 272.547 420.698 280.64 417.374 289.325C416.15 292.524 415.629 295.774 415.387 299.162" stroke="black" stroke-width="3" stroke-linecap="round"/>
<path d="M419.187 312.601C424.094 307.034 427.128 299.763 430.03 293.041C435.312 280.806 439.601 268.267 443.662 255.596" stroke="black" stroke-width="3" stroke-linecap="round"/>
<path d="M446.062 222.004C444.572 223.5 443.959 226.629 443.234 228.537C441.593 232.857 440.221 237.249 438.25 241.443C434.567 249.281 429.824 256.931 427.332 265.237" stroke="black" stroke-width="3" stroke-linecap="round"/>
<path d="M426.996 269.94C431.655 259.185 438.136 249.009 444.873 239.439C450.577 231.335 456.29 223.034 463.481 216.154" stroke="black" stroke-width="3" stroke-linecap="round"/>
<path d="M438.058 210.291C434.956 220.231 433.99 230.288 433.17 240.63C432.441 249.816 431.275 259.512 426.487 267.54" stroke="black" stroke-width="3" stroke-linecap="round"/>
<path d="M435.315 234.406C437.712 221.144 439.084 208.01 439.524 194.528" stroke="black" stroke-width="3" stroke-linecap="round"/>
<path d="M407.406 383.862C415.811 384.461 423.869 385.38 431.979 382.414C439.913 379.512 446.396 374.343 448.801 366.328" stroke="black" stroke-width="3" stroke-linecap="round"/>
<path d="M404.904 372.058C404.295 377.45 402.743 382.902 400.435 387.794" stroke="black" stroke-width="3" stroke-linecap="round"/>
<path d="M398.334 385.984C403.107 382.532 406.346 377.262 409.137 372.206C412.499 366.117 415.617 360.163 417.93 353.61" stroke="black" stroke-width="3" stroke-linecap="round"/>
<path d="M410.05 362.46C415.723 348.86 421.053 335.717 424.69 321.429" stroke="black" stroke-width="3" stroke-linecap="round"/>
<path d="M415.779 329.098C426.656 309.858 428.56 286.442 430.953 264.978C432.902 247.503 435.958 230.513 441.062 213.659C444.095 203.647 447.563 193.754 450.693 183.774" stroke="black" stroke-width="3" stroke-linecap="round"/>
<path d="M439.354 248.845C441.314 235.08 454.469 222.212 463.833 213.159C489.977 187.884 521.278 170.61 554.169 155.715" stroke="black" stroke-width="3" stroke-linecap="round"/>
<path d="M526.685 181.438C538.844 178.751 550.862 172.625 561.658 166.645C572.502 160.638 581.518 153.534 584.749 141.286" stroke="black" stroke-width="3" stroke-linecap="round"/>
<path d="M533.416 173.06C548.279 158.472 565.733 146.797 579.356 130.937" stroke="black" stroke-width="3" stroke-linecap="round"/>
<path d="M519.155 177.579C526.543 172.523 535.548 168.633 543.771 165.124C552.881 161.237 562.361 158.311 571.533 154.584C581.946 150.353 590.748 144.699 600.002 138.497" stroke="black" stroke-width="3" stroke-linecap="round"/>
<path d="M599.097 151.166C606.571 142.423 614.454 134.047 623.39 126.754C631.912 119.799 641.477 114.496 649.631 107.156" stroke="black" stroke-width="3" stroke-linecap="round"/>
<path d="M634.425 124.895C655.395 117.552 669.649 101.082 676.085 80.2535" stroke="black" stroke-width="3" stroke-linecap="round"/>
<path d="M671.776 101.537C678.648 97.8101 685.406 94.8693 691.052 89.2547C695.828 84.506 700.253 79.0147 703.895 73.377" stroke="black" stroke-width="3" stroke-linecap="round"/>
<path d="M693.89 111.97C694.801 104.676 697.766 97.4519 699.888 90.4375C702.222 82.7252 706.288 71.3784 703.494 63.3834" stroke="black" stroke-width="3" stroke-linecap="round"/>
<path d="M524.892 323.585C530.639 319.996 537.636 318.575 543.58 315.198C554.767 308.842 565.232 300.759 575.741 293.377C585.523 286.505 595.879 279.666 602.945 269.849C604.764 267.321 606.022 264.923 606.243 261.841" stroke="black" stroke-width="3" stroke-linecap="round"/>
<path d="M601.411 267.033C599.333 273.657 594.543 280.024 589.785 284.965C579.967 295.16 567.825 303.192 557.155 312.474C545.073 322.984 533.021 333.524 520.38 343.377C510.794 350.849 500.772 356.291 489.846 361.501" stroke="black" stroke-width="3" stroke-linecap="round"/>
<path d="M420.994 380.955C429.537 373.602 438.675 369.55 449.276 365.746C469.762 358.397 489.57 350.85 509.131 341.285" stroke="black" stroke-width="3" stroke-linecap="round"/>
<path d="M435.295 375.884C444.797 373.02 453.828 367.952 462.795 363.819C474.979 358.202 487.2 352.659 499.475 347.24C520.088 338.142 540.786 329.235 561.381 320.095" stroke="black" stroke-width="3" stroke-linecap="round"/>
<path d="M572.707 309.83C580.185 295.574 585.834 280.684 595.101 267.352C606.858 250.438 615.845 233.768 622.464 214.28" stroke="black" stroke-width="3" stroke-linecap="round"/>
<path d="M634.452 179.15C631.87 188.241 627.062 196.991 622.492 205.209C615.464 217.85 607.156 229.68 598.013 240.895C581.118 261.618 562.37 279.488 541.36 295.971" stroke="black" stroke-width="3" stroke-linecap="round"/>
<path d="M497.486 348.205C498.932 346.03 501.197 344.456 503.198 342.83C508.345 338.645 513.445 334.428 518.507 330.142C531.883 318.818 546.378 309.137 560.714 299.072C569.847 292.66 578.873 286.13 587.653 279.247C598.537 270.714 609.874 261.957 618.533 251.091C625.673 242.13 628.914 231.997 630.906 220.971" stroke="black" stroke-width="3" stroke-linecap="round"/>
<path d="M657.939 162.555C652.505 183.776 639.787 203.139 627.499 220.975C609.974 246.412 590.179 270.243 569.965 293.58" stroke="black" stroke-width="3" stroke-linecap="round"/>
<path d="M19.7178 342.912C34.7018 405.254 65.5 463.443 89.6996 522.448" stroke="black" stroke-width="3"/>
<path d="M25.101 354.738C55.1419 424.731 84.1496 495.122 113.386 565.451" stroke="black" stroke-width="3"/>
<path d="M62.7835 418.167C77.9161 468.299 92.9929 517.147 116.616 564.077C125.078 580.888 134.493 595.143 144.608 610.604" stroke="black" stroke-width="3"/>
<path d="M118.769 525.673C126.193 551.061 134.239 580.595 143.651 605.587C172.543 682.299 139.183 589.627 166.141 651.456" stroke="black" stroke-width="3"/>
<path d="M116.616 545.025C115.103 536.687 112.608 528.54 111.232 520.179C110.32 514.633 108.231 508.843 109.618 503.396C110.295 500.735 114.375 497.444 116.616 499.036C133.004 510.681 153.123 553.793 158.126 566.407C203.264 680.205 151.297 568.616 187.674 685.858" stroke="black" stroke-width="3"/>
<path d="M105.849 470.845C128.963 518.676 151.582 566.641 173.678 614.904" stroke="black" stroke-width="3"/>
<path d="M114.462 480.521L165.065 667.582" stroke="black" stroke-width="3"/>
<path d="M162.911 638.555C166.334 593.522 160.686 548.06 158.605 503.097" stroke="black" stroke-width="3"/>
<path d="M175.831 495.571C193.921 538.317 212.246 580.937 230.74 623.504" stroke="black" stroke-width="3"/>
<path d="M158.605 494.497L223.203 610.604" stroke="black" stroke-width="3"/>
<path d="M173.678 533.199C189.555 569.18 204.691 605.748 222.187 641.004C224.746 646.16 225.193 647.476 228.587 650.381" stroke="black" stroke-width="3"/>
<path d="M237.2 657.906C235.967 631.194 233.572 584.939 233.132 556.611C230.701 400.03 233.851 602.78 235.047 519.223" stroke="black" stroke-width="3"/>
<path d="M191.981 534.273C210.075 555.991 222.528 569.315 237.319 593.521C271.336 649.189 238.991 603.345 269.499 661.131" stroke="black" stroke-width="3"/>
<path d="M237.2 605.228C246.042 623.481 255.792 639.676 267.286 656.294C271.298 662.094 275.553 670.179 281.342 674.032" stroke="black" stroke-width="3"/>
<path d="M282.419 670.807C277.166 629.72 263.831 590.301 253.349 550.4" stroke="black" stroke-width="3"/>
<path d="M250.12 542.874C266.064 575.796 283.129 608.553 296.595 642.616C301.62 655.328 304.946 668.605 310.292 681.199C313.927 689.762 319.64 696.398 324.408 704.134" stroke="black" stroke-width="3"/>
<path d="M327.638 707.359C338.812 699.416 336.172 681.561 338.404 669.731" stroke="black" stroke-width="3"/>
<path d="M330.868 690.158C332.032 678.404 333.882 662.59 334.098 650.5C334.857 608.039 333.337 661.469 331.945 629.955" stroke="black" stroke-width="3"/>
<path d="M287.634 527.772C302.271 549.806 317.426 571.962 327.624 596.515C333.481 610.615 336.016 620.767 336.293 635.499C336.296 635.657 334.428 656.873 334.331 657.992" stroke="black" stroke-width="3"/>
<path d="M319.525 559.617C335.572 594.365 351.36 629.226 366.792 664.247" stroke="black" stroke-width="3"/>
<path d="M367.361 675.62C386.21 653.824 405.363 632.515 424.879 611.363" stroke="black" stroke-width="3"/>
<path d="M334.833 548.388C346.966 581.226 359.059 614.079 371.087 646.954" stroke="black" stroke-width="3"/>
<path d="M373.6 651.972C379.414 633.287 387.269 607.193 394.06 588.292C419.556 517.332 387.494 607.852 407.341 558.065" stroke="black" stroke-width="3"/>
<path d="M409.136 555.556C408.672 571.311 407.878 600.76 407.142 617.683C402.019 735.324 408.654 584.797 405.546 637.993" stroke="black" stroke-width="3"/>
<path d="M435.698 550.897C438.724 571.628 443.139 600.699 445.669 622.064C455.34 703.735 442.715 599.492 448.261 656.991" stroke="black" stroke-width="3"/>
<path d="M431.75 660.575C454.222 627.779 477.137 595.285 499.95 562.726" stroke="black" stroke-width="3"/>
<path d="M469.08 624.374C501.68 587.087 533.304 548.934 565.279 511.112" stroke="black" stroke-width="3"/>
<path d="M495.806 642.106C553.509 581.394 615.762 525.325 676.641 467.884" stroke="black" stroke-width="3"/>
<path d="M553.73 588.499C582.663 535.843 614.786 484.903 645.56 433.321" stroke="black" stroke-width="3"/>
<path d="M509.227 587.794C553.136 543.205 595.991 497.625 639.203 452.366" stroke="black" stroke-width="3"/>
<path d="M514.878 598.374C553.3 545.567 592.096 493.029 630.726 440.375" stroke="black" stroke-width="3"/>
<path d="M635.671 440.375L537.483 590.615" stroke="black" stroke-width="3"/>
<path d="M627.194 431.911C595.341 461.516 541.739 511.496 507.893 542.416C329.687 705.217 560.707 494.13 461.193 583.562" stroke="black" stroke-width="3"/>
<path d="M440.001 630.82C418.819 595.674 397.915 560.395 377.133 525.018" stroke="black" stroke-width="3"/>
<path d="M437.882 558.169C434.371 576.795 433.939 596.521 433.094 615.381C432.505 628.545 432.365 641.647 432.937 654.802" stroke="black" stroke-width="3"/>
<path d="M435.057 673.847C446.311 633.777 457.855 593.833 469.67 553.937" stroke="black" stroke-width="3"/>
<path d="M502.87 530.66C488.678 552.517 467.33 585.047 453.187 608.014C394.103 703.959 470.496 580.365 432.937 644.222" stroke="black" stroke-width="3"/>
<path d="M384.197 647.749C366.482 607.837 352.771 565.942 337.575 525.018" stroke="black" stroke-width="3"/>
<path d="M360.18 538.419C365.912 577.438 371.548 616.468 377.133 655.507" stroke="black" stroke-width="3"/>
<path d="M375.014 539.83C370.306 576.263 366.323 614.179 371.442 650.766C372.101 655.469 373.278 660.119 374.857 664.598C375.288 665.823 376.116 667.925 377.368 667.577C379.995 666.845 377.842 638.177 377.839 637.873" stroke="black" stroke-width="3"/>
<path d="M298.149 561.543C313.366 587.521 323.406 616.58 334.602 644.423" stroke="black" stroke-width="3"/>
<path d="M302.075 572.184L314.413 644.423" stroke="black" stroke-width="3"/>
<path d="M289.737 569.384C299.955 592.268 310.652 614.943 321.142 637.703" stroke="black" stroke-width="3"/>
<path d="M306 597.943C311.592 614.868 317.939 631.565 323.946 648.343" stroke="black" stroke-width="3"/>
<path d="M356.474 573.303C360.186 585.558 361.947 591.977 366.382 604.103C376.29 631.195 369.268 610.141 380.028 637.703" stroke="black" stroke-width="3"/>
<path d="M418.164 568.263C425.6 589.518 433.822 610.152 442.279 630.983" stroke="black" stroke-width="3"/>
</svg>
