<svg width="157" height="86" viewBox="0 0 157 86" fill="none" xmlns="http://www.w3.org/2000/svg">
<path d="M12.6466 62.9416C11.5084 58.6056 10.7522 54.209 9.95892 49.8018" stroke="black" stroke-linecap="round"/>
<path d="M8.46579 52.4893V59.3578" stroke="black" stroke-linecap="round"/>
<path d="M9.06306 48.3086C8.897 52.4045 8.3311 56.4818 7.86853 60.5525" stroke="black" stroke-linecap="round"/>
<path d="M8.46575 52.7881C8.31652 59.2797 7.70948 65.7514 6.9726 72.1991" stroke="black" stroke-linecap="round"/>
<path d="M7.56985 73.6922C8.97406 71.6685 10.1775 69.5267 11.4521 67.4209" stroke="black" stroke-linecap="round"/>
<path d="M7.56985 73.6926C8.60309 72.255 9.75564 70.5601 11.1534 69.5117" stroke="black" stroke-linecap="round"/>
<path d="M13.2439 65.9277C11.391 70.5356 9.8981 74.7937 9.06305 79.6648" stroke="black" stroke-linecap="round"/>
<path d="M9.6603 73.6924C9.47916 77.3152 8.67874 80.8619 8.16714 84.4431" stroke="black" stroke-linecap="round"/>
<path d="M1 71.9004C1.70573 73.2177 2.01463 74.9006 2.4268 76.2969C3.22041 78.9855 4.25484 81.5125 5.18084 84.1443" stroke="black" stroke-linecap="round"/>
<path d="M4.8822 74.8867C5.48749 77.7735 6.11737 80.6526 6.67399 83.547" stroke="black" stroke-linecap="round"/>
<path d="M11.4521 62.3439C11.3693 57.9563 11.1027 53.5837 10.8548 49.2041" stroke="black" stroke-linecap="round"/>
<path d="M34.1481 57.8642C30.5335 56.81 27.3421 55.0585 23.9946 53.3848" stroke="black" stroke-linecap="round"/>
<path d="M29.6686 56.6699C28.8147 54.2504 26.4823 52.2969 24.5919 50.6973" stroke="black" stroke-linecap="round"/>
<path d="M23.0987 49.5029C22.918 56.3719 22.6776 63.2393 22.5015 70.1085" stroke="black" stroke-linecap="round"/>
<path d="M23.696 53.3848C23.0174 62.5452 21.8237 71.607 19.8138 80.5602" stroke="black" stroke-linecap="round"/>
<path d="M20.4111 82.95C23.541 79.9002 26.6238 76.8243 29.6687 73.6924" stroke="black" stroke-linecap="round"/>
<path d="M21.0083 81.7551C24.291 79.859 27.6014 78.0085 30.8632 76.0811" stroke="black" stroke-linecap="round"/>
<path d="M50.4919 59.6248C49.9271 58.7776 48.6356 57.8562 47.9576 57.2659C45.8137 55.3992 43.7198 53.4828 41.5982 51.5918" stroke="black" stroke-linecap="round"/>
<path d="M41.5982 52.166C41.7172 62.8793 42.1619 73.6064 42.4589 84.2981" stroke="black" stroke-linecap="round"/>
<path d="M41.3113 50.1582C43.8347 53.5449 46.186 57.0561 48.7387 60.4226C49.8943 61.9466 50.9323 63.4577 52.5001 64.5029" stroke="black" stroke-linecap="round"/>
<path d="M51.6395 63.6416C46.2841 66.9761 40.755 70.5299 36.1472 74.8304" stroke="black" stroke-linecap="round"/>
<path d="M40.4507 69.0928C44.334 72.5954 47.1418 76.9584 50.205 81.1423" stroke="black" stroke-linecap="round"/>
<path d="M42.4589 80.5682C40.9995 70.3525 39.5154 59.5581 41.0244 49.2969" stroke="black" stroke-linecap="round"/>
<path d="M41.5982 54.1738C41.8764 62.7981 42.4773 71.3862 43.0326 79.9942" stroke="black" stroke-linecap="round"/>
<path d="M41.5982 57.043C41.5328 63.6471 41.2463 70.2385 41.0244 76.8386" stroke="black" stroke-linecap="round"/>
<path d="M61.9676 53.0264C60.5442 63.5081 60.5567 74.3187 59.9594 84.8715" stroke="black" stroke-linecap="round"/>
<path d="M59.3856 84.0109C61.6988 78.3051 67.8256 74.1364 72.0089 69.9531" stroke="black" stroke-linecap="round"/>
<path d="M72.8696 55.0352C72.4376 62.2122 71.9422 69.3806 71.4351 76.5522" stroke="black" stroke-linecap="round"/>
<path d="M55.9429 59.0518C62.0057 58.0532 67.8908 55.7496 73.7303 53.8877" stroke="black" stroke-linecap="round"/>
<path d="M72.5827 55.3223C72.6944 61.6876 72.3735 67.9133 72.0089 74.2572" stroke="black" stroke-linecap="round"/>
<path d="M81.1895 54.1738C80.9107 63.1664 80.4348 72.1539 80.0419 81.1418" stroke="black" stroke-linecap="round"/>
<path d="M84.0584 56.1826C81.1247 64.0948 78.5326 72.1406 76.3123 80.2817" stroke="black" stroke-linecap="round"/>
<path d="M81.424 54.1074C81.424 63.2764 81.1905 72.4188 80.9377 81.5812" stroke="black" stroke-linecap="round"/>
<path d="M80.9377 81.3378C84.342 78.85 87.5199 76.1208 90.663 73.3145" stroke="black" stroke-linecap="round"/>
<path d="M90.4198 66.9932C90.3102 70.2447 89.9568 73.4773 89.6904 76.7184" stroke="black" stroke-linecap="round"/>
<path d="M99.9019 54.3506C99.0532 61.858 98.8164 69.4219 98.4431 76.9618" stroke="black" stroke-linecap="round"/>
<path d="M98.6862 75.7461C98.5602 76.7121 97.6522 81.4944 99.5507 81.23C101.496 80.9592 103.516 78.6413 105.008 77.448" stroke="black" stroke-linecap="round"/>
<path d="M105.98 70.6396C105.459 73.7981 104.974 76.9551 104.521 80.1218" stroke="black" stroke-linecap="round"/>
<path d="M101.847 55.0791C99.6737 59.7043 98.9736 65.3228 98.065 70.2883C97.3316 74.296 96.8354 78.262 96.4981 82.3098" stroke="black" stroke-linecap="round"/>
<path d="M61.0733 54.1797C60.0866 64.2584 58.9831 74.3073 57.8227 84.3643" stroke="black" stroke-linecap="round"/>
<path d="M60.1445 83.8995C63.1698 80.2589 66.276 76.739 69.4321 73.2188" stroke="black" stroke-linecap="round"/>
<path d="M72.2184 49.5361C71.2748 58.0483 70.3445 66.5616 69.4321 75.077" stroke="black" stroke-linecap="round"/>
<path d="M59.6802 59.7522C63.3763 58.1311 66.8764 56.197 70.3609 54.1797" stroke="black" stroke-linecap="round"/>
<path d="M119.976 68.4993C132.46 56.9074 141.995 42.8578 148.385 27.0227C151.063 20.3862 152.291 15.8392 153.47 9.08263C154.03 5.87614 153.845 4.37435 153.726 1.51172" stroke="black" stroke-linecap="round"/>
<path d="M153.214 1C154.108 5.5296 155.05 10.0407 156.027 14.5509" stroke="black" stroke-linecap="round"/>
<path d="M152.959 2.79004C149.353 8.53014 145.917 14.3392 142.476 20.1761" stroke="black" stroke-linecap="round"/>
<path d="M151.169 4.32422C153.129 9.9526 154.264 15.9487 155.771 21.7103" stroke="black" stroke-linecap="round"/>
<path d="M155.515 3.0459C151.417 9.16398 147.242 15.1968 142.987 21.199" stroke="black" stroke-linecap="round"/>
<path d="M118.187 66.4531C128.925 59.6873 136.459 48.4 142.959 37.7319C147.062 30.9979 150.065 24.3447 152.192 16.8516" stroke="black" stroke-linecap="round"/>
<path d="M0.973633 71.7617C3.42006 75.5362 5.16244 79.8273 7.29626 83.7901" stroke="black" stroke-linecap="round"/>
</svg>
